<?xml version="1.0" standalone="no"?>
<!DOCTYPE svg PUBLIC "-//W3C//DTD SVG 20010904//EN"
 "http://www.w3.org/TR/2001/REC-SVG-20010904/DTD/svg10.dtd">
<svg version="1.0" xmlns="http://www.w3.org/2000/svg"
 width="1088.000000pt" height="1088.000000pt" viewBox="0 0 1088.000000 1088.000000"
 preserveAspectRatio="xMidYMid meet">
<metadata>
Created by potrace 1.14, written by Peter Selinger 2001-2017
</metadata>
<g transform="translate(0.000000,1088.000000) scale(0.100000,-0.100000)"
fill="#000000" stroke="none">
<path d="M6452 8121 c3 -31 0 -38 -12 -33 -10 3 -8 0 4 -10 18 -14 18 -15 0
-33 -17 -17 -17 -18 -1 -12 9 3 17 2 17 -3 0 -6 -6 -10 -12 -10 -9 0 -8 -3 2
-10 12 -8 12 -10 -3 -16 -16 -6 -16 -7 -1 -19 12 -8 14 -14 6 -19 -9 -5 -8
-12 1 -28 10 -16 9 -22 -1 -25 -10 -4 -8 -9 5 -20 10 -8 12 -12 5 -8 -9 5 -12
-3 -10 -30 1 -23 -3 -40 -12 -47 -12 -8 -12 -9 3 -4 9 3 17 1 17 -4 0 -6 -6
-10 -12 -10 -9 0 -8 -3 2 -10 12 -8 12 -10 -3 -16 -16 -6 -16 -7 -1 -19 12 -8
14 -14 6 -19 -9 -5 -8 -12 1 -28 10 -16 9 -22 -1 -25 -10 -4 -8 -9 5 -20 10
-8 12 -12 5 -8 -9 5 -12 -3 -10 -30 1 -23 -3 -40 -12 -47 -12 -8 -12 -9 3 -4
9 3 17 1 17 -4 0 -6 -6 -10 -12 -10 -9 0 -8 -3 2 -10 12 -8 12 -10 -3 -16 -16
-6 -16 -7 -1 -19 12 -8 14 -14 6 -19 -9 -5 -8 -12 1 -28 10 -16 9 -22 -1 -25
-10 -4 -8 -9 5 -20 10 -8 12 -12 6 -8 -8 4 -13 -1 -13 -14 0 -10 6 -22 13 -24
6 -3 1 -6 -13 -7 -22 0 -23 -2 -7 -11 9 -6 15 -14 12 -20 -10 -15 5 -49 21
-49 8 0 12 -4 9 -10 -3 -6 1 -7 9 -4 9 3 14 9 11 13 -6 10 33 7 42 -4 5 -4 2
-5 -6 0 -9 5 -12 4 -7 -3 8 -13 36 -5 36 10 0 5 5 6 10 3 6 -4 8 -11 5 -16 -3
-5 1 -6 9 -3 9 3 14 9 12 13 -3 4 4 7 14 7 10 0 18 -3 18 -6 -2 -20 4 -21 17
-4 13 18 14 18 15 1 0 -10 5 -15 10 -12 6 4 7 11 4 17 -4 6 1 6 14 -1 25 -13
35 -14 28 -3 -6 9 30 9 39 0 10 -10 45 4 38 15 -3 6 -1 7 6 3 9 -6 9 -11 -1
-24 -12 -14 -10 -14 10 -3 17 9 22 9 23 -1 0 -7 4 -4 9 7 7 19 8 19 15 2 6
-14 10 -15 16 -6 4 7 17 13 28 14 14 1 18 -2 11 -10 -6 -7 -3 -11 10 -11 10 0
17 3 14 7 -9 15 22 16 49 2 24 -12 28 -12 33 2 6 14 9 14 27 -2 11 -10 17 -13
14 -7 -4 7 3 14 18 16 22 5 23 3 13 -10 -12 -14 -10 -14 12 -2 32 18 63 21 50
5 -6 -7 -3 -11 10 -11 10 0 16 4 14 8 -3 4 -2 8 3 9 4 0 18 2 31 3 13 2 25 -1
27 -5 7 -10 45 1 45 14 0 6 3 7 6 4 4 -4 1 -14 -7 -23 -13 -16 -12 -16 8 -6
12 7 28 11 35 10 8 -2 14 9 16 26 2 18 0 26 -7 21 -6 -3 -11 -1 -11 4 0 6 10
11 23 12 12 0 16 3 9 6 -7 2 -17 14 -24 26 -10 20 -10 21 6 8 14 -12 16 -12
10 4 -6 14 -4 16 6 10 9 -5 11 -4 6 4 -4 6 -11 9 -16 6 -5 -3 -11 -1 -15 5 -3
5 2 10 11 10 14 0 15 3 6 12 -16 16 -15 31 1 22 6 -4 4 2 -6 13 -18 21 -14 57
7 47 6 -3 2 2 -8 10 -19 16 -19 16 -1 16 15 0 16 3 7 12 -14 14 -16 32 -3 23
5 -3 13 0 17 6 4 7 3 9 -3 6 -15 -9 -35 17 -27 37 3 9 10 14 14 11 5 -3 12 0
16 6 4 7 3 9 -2 6 -6 -3 -16 -2 -24 4 -13 7 -12 9 2 9 15 0 15 3 3 27 -10 19
-11 31 -4 40 8 9 8 22 1 43 -8 21 -8 32 0 36 7 5 8 2 3 -6 -5 -8 -4 -11 3 -6
8 5 7 18 -3 45 -9 27 -10 42 -3 49 7 7 7 20 0 41 -8 22 -8 32 0 37 7 5 8 2 3
-6 -5 -9 -4 -11 3 -6 8 5 8 15 2 32 -14 35 -13 38 8 23 16 -13 16 -13 0 7 -21
24 -23 38 -5 28 10 -6 10 -4 0 7 -17 17 -17 34 0 23 7 -5 4 -1 -6 9 -16 14
-16 17 -4 17 9 0 19 5 22 10 4 6 1 9 -6 8 -6 -2 -14 3 -17 11 -3 10 0 11 9 5
12 -6 12 -5 1 8 -10 13 -10 17 0 21 7 3 -193 6 -446 6 l-458 1 4 -39z"/>
<path d="M7346 7872 c-3 -5 1 -9 9 -9 8 0 12 4 9 9 -3 4 -7 8 -9 8 -2 0 -6 -4
-9 -8z"/>
<path d="M7346 7712 c-3 -5 1 -9 9 -9 8 0 12 4 9 9 -3 4 -7 8 -9 8 -2 0 -6 -4
-9 -8z"/>
<path d="M7340 7600 c0 -5 5 -10 11 -10 5 0 7 5 4 10 -3 6 -8 10 -11 10 -2 0
-4 -4 -4 -10z"/>
<path d="M7340 7480 c0 -5 5 -10 11 -10 5 0 7 5 4 10 -3 6 -8 10 -11 10 -2 0
-4 -4 -4 -10z"/>
<path d="M106 7270 c-7 -24 -8 -24 -16 -5 -8 19 -9 19 -9 1 -1 -20 -1 -20 -17
0 -15 19 -16 19 -9 0 6 -20 6 -20 -16 0 -12 10 -19 14 -16 7 4 -6 3 -14 -2
-17 -5 -4 -12 2 -14 11 -3 10 -4 -186 -3 -436 l1 -455 28 -7 c15 -4 25 -4 22
1 -3 4 2 11 11 14 8 3 12 2 9 -4 -8 -12 5 -13 24 -1 9 6 21 5 32 -2 13 -8 24
-8 44 1 14 7 24 9 21 4 -2 -4 6 -12 18 -18 17 -8 23 -7 23 2 0 7 -4 11 -8 8
-4 -2 -10 0 -13 5 -7 10 9 9 38 -4 12 -5 21 -3 27 6 7 11 9 9 9 -6 0 -14 3
-16 9 -7 5 8 8 -3 9 -30 1 -24 4 -53 6 -65 3 -13 1 -25 -3 -27 -4 -3 -8 -19
-9 -36 0 -18 3 -28 10 -24 6 4 6 -1 -1 -14 -6 -11 -9 -27 -6 -34 3 -7 6 -39 8
-71 1 -43 -1 -56 -11 -52 -9 3 -10 0 -2 -15 13 -25 13 -43 -1 -34 -6 3 -3 -6
7 -22 11 -15 14 -25 8 -21 -7 4 -14 1 -17 -6 -6 -16 17 -49 28 -39 5 4 5 1 1
-6 -5 -7 -15 -11 -25 -8 -9 4 -5 -3 9 -16 15 -13 18 -19 8 -15 -10 3 -20 1
-24 -5 -4 -6 -3 -8 3 -5 6 4 13 -6 15 -24 4 -22 1 -29 -9 -25 -10 4 -11 1 -3
-14 13 -25 13 -43 -1 -34 -6 3 -3 -6 7 -22 11 -15 14 -25 8 -21 -7 4 -14 1
-17 -6 -6 -16 17 -49 28 -39 5 4 5 1 1 -6 -5 -7 -15 -11 -25 -8 -9 4 -5 -3 9
-16 15 -13 18 -19 8 -15 -10 3 -20 1 -24 -5 -4 -6 -3 -8 3 -5 6 4 13 -6 15
-24 3 -22 1 -29 -9 -25 -7 3 -13 3 -13 0 0 -2 10 -9 23 -14 19 -8 19 -9 3 -9
-19 -1 -19 -1 0 -23 10 -13 12 -17 4 -10 -24 21 -31 13 -13 -15 10 -15 13 -24
7 -20 -8 5 -12 -4 -12 -28 0 -22 4 -33 11 -28 6 4 7 1 2 -6 -11 -19 -14 -162
-3 -155 6 4 5 -3 -1 -14 -6 -11 -9 -27 -6 -34 3 -7 6 -39 8 -71 1 -43 -1 -56
-11 -52 -9 3 -10 0 -2 -15 14 -26 13 -43 -2 -34 -10 6 -9 3 0 -8 9 -12 10 -22
4 -35 -11 -20 9 -58 23 -45 5 4 5 1 1 -6 -5 -7 -15 -11 -23 -7 -13 5 -14 3 -3
-10 18 -21 19 -87 2 -80 -9 3 -10 0 -2 -15 14 -25 13 -43 -2 -34 -7 4 -2 -6
10 -23 15 -21 19 -34 12 -38 -6 -4 -14 -4 -17 -1 -4 3 -1 6 6 6 7 0 9 5 5 11
-4 8 -9 7 -14 -2 -5 -7 -1 -23 8 -38 16 -24 16 -25 -3 -18 -16 6 -16 3 5 -15
15 -13 18 -19 8 -15 -10 3 -20 1 -24 -5 -4 -6 -3 -8 3 -5 6 4 13 -6 15 -24 4
-24 2 -29 -11 -24 -11 4 -10 0 5 -16 10 -12 13 -19 7 -15 -19 11 -15 -5 5 -20
16 -13 16 -14 -2 -8 -16 6 -17 4 -7 -14 7 -12 8 -22 3 -22 -5 0 -9 -14 -10
-30 0 -20 3 -28 10 -24 7 5 8 2 3 -5 -11 -19 -14 -162 -3 -155 6 4 5 -3 -1
-14 -6 -11 -9 -27 -6 -34 3 -7 6 -39 8 -71 1 -43 -1 -56 -11 -52 -9 3 -10 0
-2 -15 13 -25 13 -43 -1 -34 -6 3 -3 -6 7 -22 11 -15 14 -25 8 -21 -7 4 -14 1
-17 -6 -6 -16 17 -49 28 -39 5 4 5 1 1 -6 -5 -7 -15 -11 -25 -8 -9 4 -5 -3 9
-16 15 -13 18 -19 8 -15 -10 3 -20 1 -24 -5 -4 -6 -3 -8 3 -5 6 4 13 -6 15
-24 3 -21 1 -28 -8 -25 -8 3 -11 0 -8 -9 3 -8 11 -13 17 -11 7 1 9 1 5 -1 -5
-3 -8 -14 -8 -24 0 -13 -4 -18 -12 -13 -7 4 -8 3 -4 -5 6 -9 11 -9 22 0 12 10
13 9 8 -5 -3 -9 -11 -16 -16 -16 -6 0 -5 -7 2 -15 11 -13 10 -14 -6 -9 -16 6
-15 2 6 -22 14 -16 21 -26 16 -22 -5 4 -15 0 -23 -10 -9 -10 -12 -11 -7 -2 5
10 -1 8 -16 -5 -13 -11 -20 -14 -16 -7 9 15 -6 16 -21 1 -8 -8 -13 -8 -17 0
-10 15 -29 14 -20 -1 6 -10 4 -10 -7 0 -16 15 -33 16 -23 0 5 -7 3 -8 -5 -4
-7 5 -10 15 -7 23 3 8 1 11 -4 8 -6 -3 -10 -14 -10 -23 -1 -15 -2 -15 -15 2
-14 18 -15 18 -15 2 0 -9 -5 -14 -10 -11 -6 4 -8 11 -5 16 4 5 1 9 -4 9 -6 0
-11 -8 -11 -17 0 -15 -2 -16 -10 -3 -9 13 -11 13 -20 0 -9 -13 -10 -13 -10 0
0 13 -1 13 -10 0 -6 -10 -10 -11 -10 -2 0 6 -7 12 -15 12 -12 0 -14 -62 -15
-445 0 -443 0 -444 21 -455 15 -8 24 -9 32 -1 7 7 16 7 29 0 13 -7 18 -6 18 3
0 9 3 9 10 -2 7 -11 10 -11 10 -2 0 10 5 10 20 2 14 -8 20 -8 20 0 0 7 6 8 19
0 24 -12 34 -13 27 -1 -7 11 13 9 32 -2 7 -5 12 -3 12 3 0 8 6 8 20 0 15 -8
20 -8 20 2 0 9 3 9 10 -2 6 -10 10 -11 10 -2 0 6 7 12 16 12 8 0 13 -3 11 -7
-3 -5 6 -8 19 -8 13 0 24 5 24 10 0 6 5 3 10 -5 5 -8 10 -10 10 -4 0 7 7 15
16 18 13 5 14 4 6 -7 -9 -11 -7 -13 11 -13 12 1 25 6 29 11 5 6 8 4 8 -5 0
-13 1 -13 10 0 9 13 10 13 10 0 0 -13 1 -13 10 0 5 8 10 10 10 4 0 -6 7 -11
15 -11 8 0 12 4 9 9 -3 4 -1 8 5 8 5 0 12 -6 14 -12 4 -10 6 -10 6 0 1 10 6
10 21 2 15 -8 20 -8 20 2 0 9 3 9 10 -2 8 -12 10 -12 10 -1 0 11 3 11 15 1 11
-9 15 -9 15 -1 0 9 5 9 20 1 15 -8 20 -8 20 2 0 9 3 9 10 -2 5 -8 10 -10 10
-5 0 6 24 10 54 10 30 0 53 -2 51 -5 -2 -3 8 -5 21 -5 13 0 24 5 24 10 0 6 5
3 10 -5 5 -8 10 -10 10 -4 0 7 7 15 16 18 13 5 14 3 6 -6 -8 -10 -5 -13 14
-13 13 0 24 5 24 10 0 6 5 3 10 -5 7 -11 10 -11 10 -2 0 10 5 10 21 1 15 -7
24 -8 32 0 7 7 16 7 29 0 13 -7 18 -6 18 3 0 9 3 9 10 -2 7 -11 10 -11 10 -2
0 10 5 10 20 2 14 -8 20 -8 20 0 0 7 6 8 19 0 24 -12 34 -13 27 -1 -7 11 13 9
32 -2 7 -5 12 -3 12 3 0 8 6 8 20 0 15 -8 20 -8 20 2 0 10 2 10 9 -1 7 -11 9
-11 14 0 4 12 7 11 16 -1 10 -13 11 -13 11 0 0 9 3 11 8 5 9 -13 35 -18 27 -5
-3 5 -2 10 4 10 5 0 12 -6 14 -12 4 -10 6 -10 6 0 1 10 6 10 21 2 15 -8 20 -8
20 2 0 9 3 9 10 -2 8 -12 10 -12 10 -1 0 11 3 11 15 1 11 -9 15 -9 15 -1 0 9
5 9 20 1 15 -8 20 -8 20 2 0 9 3 9 10 -2 5 -8 10 -10 10 -5 0 6 23 10 50 10
28 0 50 -4 50 -10 0 -5 5 -3 10 5 5 8 10 10 10 4 0 -6 7 -11 15 -11 8 0 12 4
9 9 -3 4 -1 8 5 8 5 0 12 -6 14 -12 4 -10 6 -10 6 0 1 10 6 10 21 2 15 -8 20
-8 20 2 0 9 3 9 10 -2 8 -12 10 -12 10 -1 0 11 3 11 15 1 11 -9 15 -9 15 -1 0
9 5 9 20 1 15 -8 20 -8 20 2 0 9 3 9 10 -2 5 -8 10 -10 10 -4 0 7 17 8 50 4
39 -5 50 -4 46 6 -3 8 0 11 9 7 8 -3 12 -9 9 -14 -6 -10 25 -1 43 13 7 6 14 4
19 -3 5 -8 3 -9 -6 -4 -8 5 -11 4 -7 -3 4 -5 16 -8 27 -5 11 3 18 9 15 12 -2
4 2 8 10 8 8 0 12 -4 10 -8 -3 -4 2 -10 11 -13 21 -8 24 -8 24 5 0 5 -5 7 -12
3 -7 -4 -8 -3 -4 5 4 6 12 9 17 6 5 -4 9 0 9 7 0 8 5 6 11 -4 5 -10 15 -18 20
-18 6 0 8 4 4 9 -3 5 0 13 6 17 8 4 9 3 5 -4 -4 -7 -2 -12 4 -12 6 0 8 -5 4
-12 -5 -7 -3 -8 5 -4 7 5 10 10 7 14 -6 5 24 31 37 32 4 0 7 -5 7 -11 0 -5 -4
-8 -9 -4 -5 3 -13 1 -16 -5 -4 -6 -3 -10 2 -9 4 1 10 0 13 -1 21 -8 37 -6 37
6 0 7 -5 10 -10 7 -6 -3 -7 -1 -3 6 6 9 11 9 24 -1 10 -8 13 -9 9 -1 -4 6 -2
15 4 19 7 4 9 3 6 -2 -3 -6 -2 -16 4 -24 7 -12 9 -11 9 4 0 11 3 16 7 13 3 -4
14 0 23 8 14 13 17 13 17 0 0 -8 -5 -11 -10 -8 -6 3 -7 1 -3 -5 4 -6 13 -9 21
-6 8 4 13 10 10 14 -3 5 9 5 27 0 17 -6 34 -7 37 -5 2 3 -1 5 -7 5 -7 0 -12 5
-12 12 0 6 3 8 7 5 3 -4 15 1 26 10 11 10 17 12 13 6 -5 -9 1 -13 19 -13 14 0
24 4 21 8 -2 4 4 9 15 9 11 1 17 -2 15 -6 -3 -4 1 -8 9 -8 8 0 11 5 8 10 -4 6
0 8 10 4 16 -6 22 3 18 26 -1 5 3 5 9 2 6 -4 9 -14 6 -24 -5 -14 -4 -14 7 1 8
10 18 14 23 10 4 -4 2 1 -6 11 -11 16 -11 18 1 15 8 -2 19 -9 24 -16 9 -11 14
-10 26 5 13 17 13 17 -6 3 -18 -14 -19 -14 -7 2 8 10 22 15 37 12 13 -2 27 1
31 7 4 7 3 9 -4 5 -6 -3 -14 -1 -18 6 -4 7 -4 10 1 6 4 -4 15 -2 23 5 11 8 14
8 9 0 -4 -6 -3 -14 3 -18 5 -3 10 -2 10 4 0 5 8 8 19 6 15 -3 18 1 14 18 -3
16 -2 18 5 8 7 -9 15 -10 28 -3 11 6 23 10 27 10 5 0 12 4 15 8 4 4 2 4 -5 0
-6 -3 -15 -1 -19 6 -4 7 -4 10 1 6 4 -4 15 -2 23 5 13 9 14 9 8 0 -4 -7 -2
-13 3 -13 6 0 11 7 11 16 0 14 3 14 15 4 9 -7 18 -10 22 -6 3 3 1 6 -5 6 -7 0
-12 4 -12 9 0 4 11 7 25 6 14 -2 23 1 19 6 -3 5 -9 7 -13 5 -4 -3 -8 1 -8 9 0
11 4 12 13 4 9 -7 17 -4 28 13 9 12 16 18 16 12 0 -5 -6 -16 -12 -23 -11 -11
-9 -11 10 -2 12 7 20 17 16 23 -5 7 0 9 14 6 15 -4 19 -2 15 8 -3 9 1 14 12
14 9 0 14 4 11 9 -3 4 6 13 20 20 16 7 22 16 18 24 -4 6 -4 9 1 5 4 -4 15 -3
24 3 9 7 1 -3 -17 -20 -43 -41 -38 -49 6 -10 34 31 39 44 20 53 -9 4 -8 5 2 5
32 -2 41 1 34 14 -6 9 -4 9 8 -1 14 -11 16 -11 14 0 -1 7 -6 20 -11 28 -5 9 1
7 15 -5 13 -11 20 -14 16 -7 -4 6 -2 12 3 12 6 0 11 5 11 11 0 5 -4 8 -9 4 -5
-3 -13 -1 -16 5 -4 6 -3 10 2 9 26 -4 45 2 40 15 -4 10 1 12 16 9 18 -4 19 -3
7 6 -13 9 -13 11 2 11 9 0 20 5 24 12 5 7 2 9 -7 4 -8 -4 -4 1 9 11 18 15 20
21 10 32 -11 11 -9 11 11 1 13 -6 21 -8 18 -3 -8 14 12 53 28 53 9 0 14 4 10
10 -3 5 -13 6 -23 3 -14 -5 -14 -3 2 9 13 10 16 20 11 29 -8 12 -6 12 8 1 14
-12 16 -11 12 7 -2 11 1 24 7 27 7 4 8 2 4 -4 -4 -7 -3 -12 2 -12 17 0 22 13
9 28 -10 13 -9 15 6 9 15 -6 16 -4 6 15 -9 17 -9 20 3 16 8 -4 18 4 25 18 6
13 7 22 2 18 -5 -3 -8 6 -7 20 1 13 7 22 12 19 5 -4 7 1 3 11 -5 14 -3 17 8
12 8 -3 15 -1 15 4 0 6 -5 10 -11 10 -6 0 -3 7 5 16 17 16 22 39 8 30 -5 -3
-8 7 -7 21 0 15 6 28 13 31 7 2 12 8 12 13 0 6 -4 8 -8 5 -5 -3 -9 1 -9 9 0 8
4 12 9 9 13 -8 10 10 -5 25 -10 11 -8 12 8 3 18 -9 21 -8 21 14 0 13 -4 24 -8
24 -4 0 -8 5 -8 11 0 5 4 8 8 5 5 -3 9 1 9 9 0 8 -5 15 -11 15 -5 0 -2 6 9 13
14 11 15 16 5 22 -9 5 -11 4 -6 -3 4 -7 2 -12 -3 -12 -14 0 -14 13 1 28 7 7 9
12 5 12 -4 0 -3 9 3 20 8 15 7 18 -2 15 -9 -4 -13 6 -13 34 0 30 3 37 13 29
21 -18 13 0 -10 23 -13 12 -18 19 -12 16 7 -4 14 0 18 8 3 9 0 15 -9 15 -7 0
-16 4 -19 9 -4 5 4 7 16 5 13 -2 17 -1 10 2 -10 5 -10 9 -1 21 10 11 10 16 0
22 -7 5 -11 17 -9 27 2 13 -3 19 -15 18 -14 -2 -15 1 -7 12 8 8 8 19 2 30 -6
10 -6 29 -2 46 7 22 5 28 -7 28 -13 0 -14 2 -2 17 10 11 10 14 2 9 -8 -4 -13
-1 -13 8 0 9 -5 16 -10 16 -7 0 -7 7 1 21 9 17 8 20 -2 14 -9 -6 -11 -3 -6 9
5 11 3 15 -5 10 -8 -5 -9 -2 -5 10 5 12 3 16 -5 13 -7 -2 -12 -10 -10 -16 1
-7 -2 -10 -8 -6 -8 5 -8 11 -1 19 6 7 7 17 3 21 -4 5 0 4 8 0 13 -8 13 -7 0
10 -8 10 -14 20 -13 21 6 8 -33 64 -44 64 -7 0 -13 3 -14 8 -3 35 -28 90 -29
64 0 -7 -4 -11 -9 -8 -4 3 -7 17 -6 31 2 14 -1 23 -6 19 -6 -3 -21 6 -35 21
-20 22 -23 30 -12 36 7 5 8 9 2 9 -5 0 -15 -5 -22 -12 -9 -9 -12 -8 -12 6 0 9
-5 14 -10 11 -6 -3 -10 -1 -10 5 0 6 -5 8 -12 4 -10 -6 -10 -5 -1 8 17 20 5
30 -21 16 -19 -10 -20 -10 -7 5 12 15 11 17 -8 17 -12 0 -19 5 -16 10 3 6 -1
10 -10 10 -9 0 -14 -4 -11 -8 3 -5 -1 -9 -9 -9 -11 0 -12 4 -4 13 15 19 3 33
-23 26 -16 -4 -19 -2 -13 8 6 10 4 11 -6 4 -19 -12 -40 -14 -34 -4 3 5 1 11
-4 15 -6 3 -9 11 -7 18 1 7 1 9 -1 4 -3 -4 -10 -4 -16 0 -7 4 -8 0 -4 -11 4
-10 3 -15 -3 -11 -6 3 -10 13 -10 22 0 11 -6 14 -21 10 -16 -4 -18 -3 -8 9 7
9 8 14 1 14 -6 0 -14 -5 -18 -11 -4 -8 -8 -8 -13 0 -4 6 -21 11 -39 13 -21 1
-31 7 -28 15 3 7 0 15 -6 19 -7 4 -8 3 -4 -4 4 -7 2 -12 -4 -12 -6 0 -9 -4 -6
-8 3 -5 -2 -9 -10 -9 -9 0 -11 4 -5 10 11 11 4 37 -10 37 -4 0 -5 -8 -2 -17 6
-15 5 -16 -9 -3 -9 8 -12 17 -7 18 5 2 7 8 3 13 -10 17 -13 50 -3 44 5 -4 7
-11 4 -16 -4 -5 -1 -9 5 -9 7 0 9 8 5 21 -6 16 -4 20 6 14 8 -5 6 1 -3 12 -19
21 -23 34 -10 31 19 -4 61 15 55 26 -3 6 -3 8 2 4 4 -4 15 -2 23 5 10 8 13 8
9 1 -4 -7 -1 -14 7 -17 9 -4 13 2 12 15 -1 13 6 22 17 24 9 1 17 -2 17 -8 0
-6 -7 -8 -14 -5 -10 4 -13 1 -9 -8 4 -12 10 -10 33 8 15 12 26 25 24 29 -2 3
7 5 21 3 17 -1 25 3 25 14 0 9 3 12 8 6 6 -9 15 -11 38 -6 4 0 0 9 -7 18 -8 9
-9 14 -4 11 6 -4 17 -3 25 2 9 5 20 4 28 -2 10 -9 12 -8 10 3 -2 8 3 13 9 12
7 -2 12 0 12 5 -3 20 2 25 12 12 9 -12 10 -11 6 6 -4 18 0 21 27 18 22 -3 27
-1 16 5 -8 6 -18 7 -24 4 -5 -4 -6 -1 -2 6 5 7 14 10 21 7 7 -2 21 5 31 17 10
12 12 16 4 10 -8 -7 -18 -13 -24 -13 -5 0 -1 6 10 14 11 9 23 11 30 5 7 -6 11
-3 11 9 0 9 -5 21 -11 25 -6 5 -1 5 12 2 18 -5 25 -2 29 14 3 12 10 21 15 21
5 0 6 -5 2 -12 -4 -7 -3 -8 5 -4 9 6 9 11 -1 24 -10 12 -10 14 0 8 7 -4 12 -2
12 7 0 8 8 21 18 28 14 11 15 11 5 -1 -7 -8 -13 -19 -13 -24 1 -12 18 13 19
27 0 4 11 19 25 33 15 17 23 37 22 55 -1 19 1 25 9 19 7 -6 11 0 13 18 1 15 7
29 12 30 6 2 10 8 10 13 0 6 -5 7 -12 3 -7 -5 -8 -3 -4 5 5 7 15 10 24 6 13
-5 13 -2 -2 14 -18 20 -18 20 5 16 20 -4 22 -2 9 8 -8 7 -16 18 -18 26 -2 11
0 12 10 3 11 -9 14 -7 15 9 1 12 -3 17 -10 13 -7 -3 -1 4 12 15 21 19 20 26
-2 22 -5 -1 -6 3 -2 9 3 5 14 10 23 10 14 0 15 2 3 9 -12 8 -12 12 -2 24 9 12
9 17 0 23 -8 5 -9 3 -4 -6 5 -9 4 -11 -4 -6 -8 5 -9 12 -3 19 5 7 8 20 7 30
-2 9 1 15 5 12 5 -3 7 -14 5 -25 -2 -12 0 -18 6 -15 5 4 7 11 4 16 -4 5 0 9 7
9 10 0 9 3 -1 9 -12 8 -13 14 -3 35 7 16 8 26 2 26 -6 0 -10 5 -10 11 0 5 6 7
13 3 7 -5 6 0 -3 11 -14 17 -13 18 4 12 16 -6 17 -5 6 8 -7 8 -9 15 -4 15 4 0
3 5 -4 12 -7 7 -12 17 -12 22 0 6 4 5 9 -3 6 -9 10 -4 13 18 3 24 2 28 -8 20
-10 -8 -12 -5 -11 10 1 15 6 20 17 16 11 -5 12 -3 3 6 -6 6 -9 18 -6 27 5 11
3 13 -8 7 -12 -8 -12 -6 0 8 11 14 11 17 0 17 -11 0 -11 2 1 10 13 9 13 10 0
11 -10 0 -8 3 5 9 l20 9 -20 0 c-17 1 -18 3 -5 12 12 9 11 10 -8 6 -12 -3 -20
-1 -16 4 3 5 13 9 22 10 11 0 13 2 4 6 -10 4 -10 8 -1 19 7 8 9 17 5 21 -3 3
-6 1 -6 -5 0 -7 -7 -12 -15 -12 -8 0 -15 5 -15 11 0 5 5 7 10 4 6 -3 10 1 10
10 0 10 -5 13 -12 9 -6 -4 -8 -3 -4 4 3 5 3 12 -1 15 -5 2 -2 2 5 1 17 -5 15
13 -3 20 -11 4 -13 11 -5 31 7 17 6 24 -2 22 -6 -1 -13 4 -15 11 -3 8 1 10 11
6 9 -3 16 -1 16 6 0 6 -5 8 -10 5 -6 -3 -14 5 -19 18 -6 14 -13 27 -18 29 -4
3 -2 3 6 1 11 -3 9 3 -5 18 -10 12 -14 20 -8 16 6 -3 11 0 11 7 0 8 -7 12 -14
9 -8 -3 -13 -2 -12 3 4 21 -2 35 -11 29 -5 -3 -10 -2 -10 4 0 5 5 11 12 13 8
3 2 17 -15 40 -15 19 -24 38 -19 43 4 5 1 5 -5 1 -7 -4 -13 -2 -13 3 0 6 -10
21 -22 33 -15 15 -16 20 -5 15 11 -4 14 -2 11 8 -3 8 -9 14 -12 13 -25 -3 -34
4 -29 23 4 15 2 19 -9 15 -8 -3 -12 -2 -9 3 3 5 1 12 -5 16 -6 4 -7 12 -3 18
4 7 0 7 -10 -1 -14 -12 -16 -11 -12 10 4 23 4 23 -11 3 -15 -19 -15 -19 -9 10
5 23 4 26 -4 15 -9 -13 -11 -12 -11 3 0 10 -5 15 -10 12 -5 -3 -10 1 -10 10 0
9 -7 23 -15 31 -18 18 -20 4 -2 -15 10 -11 8 -11 -10 0 -12 7 -19 17 -17 21 3
5 -4 20 -15 34 -12 15 -21 23 -21 19 0 -5 7 -16 16 -26 12 -13 12 -19 3 -25
-7 -4 -10 -3 -6 3 4 6 -8 21 -26 33 -17 12 -24 19 -14 16 9 -3 17 -1 17 4 0 9
-30 15 -53 11 -4 -1 -2 9 4 21 11 20 10 22 -3 10 -11 -9 -17 -9 -20 -2 -2 6
-13 12 -25 13 -18 1 -20 4 -11 22 10 18 10 19 -5 6 -13 -10 -17 -10 -17 -1 0
10 -4 9 -17 -1 -10 -7 -15 -10 -11 -5 8 10 -27 49 -47 52 -8 1 -12 -2 -9 -8 4
-7 2 -8 -4 -4 -7 4 -12 15 -12 24 0 15 -2 15 -10 2 -8 -13 -10 -12 -10 3 0 9
-5 17 -11 17 -5 0 -7 -6 -4 -12 4 -7 0 -5 -8 4 -17 22 -32 11 -14 -11 11 -14
10 -14 -5 -2 -10 7 -15 17 -12 22 3 5 -2 9 -10 9 -9 0 -16 5 -16 11 0 8 -4 8
-13 1 -14 -12 -51 10 -39 24 4 4 -2 2 -12 -6 -18 -13 -19 -13 -14 2 9 22 -1
29 -23 17 -15 -8 -19 -6 -20 8 0 16 -1 16 -9 -2 -5 -11 -9 -15 -9 -8 -1 6 -10
10 -20 8 -11 -2 -22 3 -25 10 -3 8 -15 19 -28 25 -22 11 -22 10 -4 -4 11 -9
15 -16 9 -16 -7 0 -19 7 -27 16 -9 8 -16 11 -16 6 0 -5 -7 -9 -15 -9 -8 0 -15
5 -15 10 0 5 -6 4 -13 -2 -14 -11 -27 -5 -27 13 0 6 5 4 10 -4 7 -12 9 -10 7
7 -1 17 -4 19 -14 11 -8 -6 -16 -8 -20 -5 -3 4 -12 2 -19 -4 -8 -7 -14 -6 -20
2 -5 8 -3 9 6 4 9 -5 11 -4 6 3 -4 8 -15 8 -31 2 -20 -8 -25 -6 -25 6 0 14 -2
14 -16 0 -17 -17 -28 -21 -20 -7 3 5 -1 11 -9 15 -8 3 -15 1 -15 -4 0 -6 -5
-10 -11 -10 -5 0 -7 6 -3 13 5 7 0 6 -11 -3 -10 -8 -16 -10 -12 -4 4 7 -1 14
-12 17 -15 3 -18 1 -14 -12 3 -12 1 -11 -11 3 -14 18 -21 15 -17 -7 1 -5 -3
-6 -9 -2 -6 3 -8 10 -6 14 3 4 -2 8 -10 8 -9 0 -13 -6 -9 -16 3 -11 1 -10 -10
3 -8 10 -11 24 -8 30 4 6 0 5 -9 -2 -12 -9 -18 -10 -23 -2 -5 8 -14 6 -28 -7
-20 -17 -20 -17 -14 2 7 19 6 19 -7 2 -10 -13 -15 -15 -19 -5 -3 10 -9 11 -25
1 -16 -9 -23 -10 -28 -1 -5 7 -3 8 6 3 8 -5 11 -4 7 2 -7 11 -43 10 -54 -2 -5
-4 -2 -5 6 0 10 6 12 4 7 -4 -10 -16 -39 6 -29 23 3 6 2 7 -3 3 -5 -5 -10 -13
-10 -18 -1 -5 -2 -12 -3 -16 0 -4 -8 2 -17 13 -11 13 -14 14 -11 3 3 -9 -1
-16 -9 -16 -7 0 -10 5 -7 10 4 6 -6 8 -26 4 -18 -4 -30 -3 -26 2 6 11 -14 9
-32 -2 -12 -8 -17 -2 -14 16 1 5 -3 6 -9 2 -6 -3 -8 -11 -5 -16 9 -13 -9 -11
-23 3 -9 9 -12 8 -12 -5 0 -9 -5 -17 -11 -17 -5 0 -7 5 -3 12 5 8 -2 9 -25 5
-19 -4 -30 -3 -26 3 3 5 -4 7 -17 4 -13 -3 -60 -5 -106 -5 -52 1 -81 -3 -77
-9 3 -6 1 -10 -4 -10 -6 0 -11 6 -11 13 0 7 -13 12 -30 12 -33 0 -36 -4 -17
-25 6 -8 -1 -4 -16 10 -16 14 -28 21 -27 15 5 -24 -1 -27 -16 -9 -15 18 -15
18 -10 0 5 -14 3 -16 -6 -9 -17 14 -111 16 -103 3 3 -6 1 -10 -4 -10 -6 0 -11
6 -11 14 0 9 -8 12 -26 8 -18 -3 -24 -9 -19 -21 3 -9 -3 -5 -14 8 -18 23 -19
23 -24 5 -4 -15 -5 -14 -6 6 l-2 25 -11 -25 c-10 -24 -10 -24 -18 -5 -8 19 -9
19 -9 1 -1 -20 -1 -20 -17 0 -15 19 -16 19 -9 0 6 -20 6 -20 -16 0 -12 10 -19
14 -16 7 4 -6 3 -14 -3 -18 -5 -3 -10 1 -10 9 0 9 -5 16 -11 16 -6 0 -8 -7 -5
-16 5 -14 4 -15 -8 -5 -21 18 -59 23 -53 7 3 -7 -1 -13 -9 -13 -7 0 -11 4 -8
9 8 12 -24 10 -49 -4 -20 -10 -21 -9 -9 5 11 13 11 15 0 13 -7 -1 -19 -5 -25
-9 -12 -8 -17 -2 -14 16 1 5 -3 6 -9 2 -6 -3 -8 -11 -5 -16 9 -13 -9 -11 -23
3 -9 9 -12 8 -12 -5 0 -9 -5 -17 -11 -17 -5 0 -7 5 -3 12 5 8 -2 9 -25 5 -19
-4 -30 -3 -26 3 3 5 -4 7 -17 4 -13 -3 -60 -5 -106 -5 -52 1 -81 -3 -77 -9 3
-6 1 -10 -4 -10 -6 0 -11 6 -11 13 0 7 -13 12 -30 12 -33 0 -36 -4 -17 -25 6
-8 -1 -4 -16 10 -16 14 -28 21 -27 15 5 -24 -1 -27 -16 -9 -15 18 -15 18 -10
0 5 -14 3 -16 -6 -9 -17 14 -111 16 -103 3 3 -6 1 -10 -4 -10 -6 0 -11 6 -11
14 0 9 -8 12 -26 8 -18 -3 -24 -9 -19 -21 3 -9 -4 -5 -15 9 -18 23 -20 24 -21
5 -1 -16 -2 -15 -8 5 l-7 25 -8 -25z m818 -16 c3 -8 2 -12 -4 -9 -6 3 -10 10
-10 16 0 14 7 11 14 -7z m1136 -4 c-6 -11 -13 -20 -16 -20 -2 0 0 9 6 20 6 11
13 20 16 20 2 0 0 -9 -6 -20z m814 -206 c3 -8 2 -12 -4 -9 -6 3 -10 10 -10 16
0 14 7 11 14 -7z m447 -457 c-10 -9 -11 -8 -5 6 3 10 9 15 12 12 3 -3 0 -11
-7 -18z m-2006 -207 c-3 -5 1 -10 10 -10 10 0 13 5 9 12 -4 7 6 2 23 -10 20
-14 34 -19 38 -12 4 6 12 10 18 9 31 -4 48 2 41 13 -4 6 3 4 15 -4 13 -9 34
-14 48 -12 17 3 22 1 17 -7 -4 -8 -3 -9 4 -5 6 4 10 12 8 19 -1 7 -1 9 1 5 3
-5 11 -8 19 -8 9 0 12 5 8 12 -4 7 6 2 23 -10 20 -14 34 -19 38 -12 4 6 12 10
18 9 29 -4 48 2 41 12 -3 6 4 4 17 -4 13 -8 34 -13 47 -11 16 3 21 0 16 -8 -4
-7 -3 -8 4 -4 6 4 10 12 8 19 -1 7 -1 9 1 5 3 -5 11 -8 19 -8 9 0 12 5 8 12
-4 7 6 2 23 -10 18 -12 34 -18 37 -13 8 12 89 10 99 -3 6 -7 7 -5 4 6 -3 9 1
19 9 22 8 3 13 2 11 -2 -3 -4 2 -14 11 -22 14 -13 15 -12 9 3 -3 9 -2 19 3 22
6 4 10 2 10 -3 0 -6 15 -12 34 -14 19 -2 33 -1 30 3 -2 4 3 10 12 13 8 3 13 2
10 -3 -3 -5 1 -12 10 -15 8 -3 12 -2 9 3 -3 5 -1 12 5 16 5 3 10 0 10 -8 0
-10 8 -13 26 -9 16 3 30 -1 36 -9 8 -11 9 -11 5 3 -4 10 1 19 11 23 9 3 13 3
9 -1 -11 -12 26 -34 39 -23 7 5 16 9 20 8 26 -4 45 2 38 14 -6 8 -3 8 9 -1 9
-8 22 -10 29 -6 19 12 39 14 32 3 -3 -5 -9 -7 -14 -4 -5 3 -12 1 -15 -5 -4 -6
-1 -9 7 -8 7 2 12 -3 10 -10 -1 -8 2 -11 8 -7 6 3 8 10 5 15 -7 11 15 18 38
12 16 -4 17 -6 2 -23 -17 -18 -4 -22 20 -7 6 4 11 -2 11 -13 0 -12 -5 -18 -13
-15 -7 3 -13 1 -13 -4 0 -6 4 -10 9 -10 16 0 18 -34 3 -52 -14 -16 -13 -18 4
-19 18 0 18 -1 -1 -9 -12 -5 -14 -9 -6 -9 11 -1 11 -5 -2 -19 -15 -16 -15 -19
-2 -19 8 0 15 5 15 10 0 6 2 8 5 5 3 -3 -2 -24 -10 -48 -18 -52 -18 -55 -2
-42 9 8 12 5 12 -13 0 -24 -14 -29 -27 -10 -5 6 -8 5 -8 -3 0 -7 6 -15 14 -18
8 -3 17 -12 20 -20 3 -8 2 -13 -3 -10 -10 6 -25 -24 -16 -32 3 -3 5 1 5 9 0
12 2 12 9 -1 12 -18 5 -31 -13 -24 -8 3 -17 1 -20 -4 -3 -5 2 -9 12 -8 13 1
17 -8 18 -42 1 -23 -2 -45 -7 -48 -5 -3 -9 -10 -9 -16 0 -7 5 -6 14 1 12 10
13 8 9 -8 -3 -12 -10 -18 -16 -14 -6 4 -7 1 -1 -8 11 -18 14 -70 3 -63 -5 3
-9 0 -9 -5 0 -6 8 -11 18 -12 14 0 14 -2 -3 -9 -12 -5 -14 -9 -6 -9 11 -1 11
-5 -2 -19 -15 -16 -15 -19 -2 -19 8 0 15 5 15 10 0 6 2 8 5 5 3 -3 -2 -24 -10
-48 -18 -52 -18 -55 -2 -42 10 8 12 5 12 -14 -1 -13 -5 -27 -10 -31 -4 -5 -5
-2 0 5 6 11 3 12 -14 3 -26 -14 -27 -19 -3 -17 11 1 16 -5 14 -18 -2 -12 1
-16 9 -10 8 4 10 3 5 -5 -4 -6 -11 -9 -15 -7 -4 3 -8 -1 -8 -9 0 -8 4 -12 8
-9 4 2 11 0 14 -6 4 -6 3 -10 -2 -9 -4 1 -14 1 -22 0 -11 -1 -11 -4 0 -18 13
-17 12 -17 -4 -3 -26 19 -57 23 -57 6 0 -17 -27 -29 -35 -16 -4 6 -17 10 -31
10 -14 0 -22 -4 -19 -10 10 -16 -1 -11 -16 7 -8 10 -9 14 -2 10 6 -4 15 -2 19
4 4 8 3 9 -4 5 -7 -4 -12 -1 -12 6 -1 7 -6 3 -13 -10 -10 -17 -16 -19 -24 -11
-7 7 -34 13 -60 13 -26 1 -54 5 -61 10 -11 7 -12 4 -4 -11 9 -16 7 -18 -14
-18 -13 1 -27 5 -31 10 -5 4 -3 5 4 1 6 -3 14 -3 17 2 2 4 -4 9 -15 9 -10 1
-19 -4 -19 -12 0 -16 -27 -28 -35 -15 -4 6 -17 10 -31 10 -18 0 -23 -4 -18
-12 5 -9 2 -9 -9 1 -18 14 -23 26 -8 16 5 -3 13 0 17 6 4 8 3 9 -4 5 -7 -4
-12 -1 -12 6 -1 7 -6 3 -13 -10 -10 -17 -16 -19 -24 -11 -7 7 -34 13 -60 13
-26 1 -54 5 -61 10 -12 7 -12 4 -2 -14 7 -12 7 -20 2 -16 -6 3 -12 1 -14 -6
-3 -7 -7 -5 -11 6 -5 11 -3 15 5 10 7 -4 8 -3 4 5 -6 9 -11 9 -24 -1 -12 -10
-14 -10 -8 0 4 6 2 12 -3 12 -6 0 -11 -6 -11 -14 0 -17 -27 -29 -35 -16 -4 6
-17 10 -31 10 -18 0 -23 -4 -18 -12 5 -9 2 -9 -9 1 -18 14 -23 26 -8 16 5 -3
13 0 17 6 4 8 3 9 -4 5 -7 -4 -12 -1 -12 6 -1 7 -6 3 -13 -10 -10 -17 -16 -19
-24 -11 -7 7 -34 13 -60 13 -26 1 -54 5 -61 10 -11 7 -12 4 -4 -11 9 -16 7
-18 -14 -18 -13 1 -27 5 -31 10 -5 4 -3 5 4 1 6 -3 14 -3 17 2 2 4 -4 9 -15 9
-10 1 -19 -4 -19 -12 0 -16 -27 -28 -35 -15 -4 6 -17 10 -31 10 -18 0 -23 -4
-18 -12 6 -10 5 -10 -7 -1 -8 6 -17 12 -21 12 -5 1 -9 4 -9 9 -1 4 -13 18 -28
31 l-26 24 26 -16 c21 -12 26 -13 26 -2 0 8 -4 12 -8 10 -11 -8 -27 18 -23 40
1 11 -2 23 -9 27 -9 6 -8 8 2 8 10 0 11 3 2 13 -8 10 -7 14 3 14 9 0 12 -14
11 -43 -1 -34 1 -41 12 -33 9 8 10 16 2 30 -7 14 -6 19 3 19 9 0 9 3 -2 10 -8
5 -11 10 -6 10 5 0 3 7 -4 15 -7 8 -8 15 -3 15 5 0 9 10 7 23 -1 12 -3 25 -3
30 -1 4 -9 7 -18 8 -14 0 -14 2 3 9 12 5 25 14 30 21 4 7 3 10 -3 6 -12 -7
-26 26 -25 58 0 11 -5 23 -12 27 -8 5 -7 8 3 8 10 0 11 3 2 13 -8 10 -7 14 3
14 9 0 12 -14 11 -43 -1 -34 1 -41 12 -33 9 8 10 16 2 30 -7 14 -6 19 3 19 9
0 9 3 -2 10 -8 5 -11 10 -6 10 5 0 3 7 -4 15 -7 8 -8 15 -3 15 5 0 9 10 7 23
-1 12 -3 25 -3 30 -1 4 -9 7 -18 8 -14 0 -14 2 3 9 12 5 25 14 30 21 4 7 3 10
-3 6 -12 -7 -26 26 -25 58 0 11 -5 23 -12 27 -8 5 -7 8 3 8 10 0 11 3 2 13 -8
10 -7 14 3 14 9 0 12 -14 11 -43 -1 -34 1 -41 12 -33 9 8 10 16 2 30 -7 14 -6
19 3 19 9 0 9 3 -2 10 -8 5 -11 10 -6 10 5 0 3 7 -4 15 -7 8 -8 15 -3 15 5 0
9 10 7 23 -1 12 -3 25 -3 30 -1 4 -9 7 -18 8 -14 0 -14 2 3 9 12 5 25 14 30
21 4 7 3 10 -3 6 -6 -4 -13 0 -17 8 -3 8 -1 15 4 15 5 0 6 7 3 17 -5 12 -3 14
7 8 8 -5 11 -4 6 3 -4 6 -12 10 -19 8 -7 -1 -9 -1 -4 1 12 8 8 23 -7 23 -8 0
-17 4 -20 8 -3 4 8 7 23 6 24 -2 28 1 23 19 -4 15 -2 18 9 12 11 -7 12 -6 2 7
-7 8 -10 18 -6 21 10 10 15 8 8 -3z m79 -11 c-3 -5 -10 -7 -15 -3 -5 3 -7 10
-3 15 3 5 10 7 15 3 5 -3 7 -10 3 -15z m46 15 c0 -8 -19 -13 -24 -6 -3 5 1 9
9 9 8 0 15 -2 15 -3z m85 -3 c-9 -8 -36 -10 -30 -2 2 4 11 8 20 8 8 0 13 -3
10 -6z m109 -12 c-3 -5 -10 -7 -15 -3 -5 3 -7 10 -3 15 3 5 10 7 15 3 5 -3 7
-10 3 -15z m46 15 c0 -8 -19 -13 -24 -6 -3 5 1 9 9 9 8 0 15 -2 15 -3z m85 -3
c-9 -8 -36 -10 -30 -2 2 4 11 8 20 8 8 0 13 -3 10 -6z m109 -12 c-3 -5 -10 -7
-15 -3 -5 3 -7 10 -3 15 3 5 10 7 15 3 5 -3 7 -10 3 -15z m56 16 c0 -7 -30
-13 -34 -7 -3 4 4 9 15 9 10 1 19 0 19 -2z m344 -16 c-3 -5 -10 -7 -15 -3 -5
3 -7 10 -3 15 3 5 10 7 15 3 5 -3 7 -10 3 -15z m46 15 c0 -8 -19 -13 -24 -6
-3 5 1 9 9 9 8 0 15 -2 15 -3z m-1035 -172 c-3 -3 -11 0 -18 7 -9 10 -8 11 6
5 10 -3 15 -9 12 -12z m0 -240 c-3 -3 -11 0 -18 7 -9 10 -8 11 6 5 10 -3 15
-9 12 -12z m0 -240 c-3 -3 -11 0 -18 7 -9 10 -8 11 6 5 10 -3 15 -9 12 -12z
m2055 -226 c0 -11 -19 -15 -25 -6 -3 5 1 10 9 10 9 0 16 -2 16 -4z m-1803 -41
c0 -6 -6 -12 -12 -12 -6 0 -12 6 -12 12 0 6 6 12 12 12 6 0 12 -6 12 -12z m40
-2 c0 -9 -4 -10 -14 -2 -7 6 -13 12 -13 14 0 1 6 2 13 2 8 0 14 -6 14 -14z
m280 2 c0 -6 -6 -12 -12 -12 -6 0 -12 6 -12 12 0 6 6 12 12 12 6 0 12 -6 12
-12z m36 -2 c-3 -7 -6 -13 -8 -13 -2 0 -5 6 -8 13 -3 8 1 14 8 14 7 0 11 -6 8
-14z m284 2 c0 -6 -6 -12 -12 -12 -6 0 -12 6 -12 12 0 6 6 12 12 12 6 0 12 -6
12 -12z m40 -2 c0 -9 -4 -10 -14 -2 -7 6 -13 12 -13 14 0 1 6 2 13 2 8 0 14
-6 14 -14z m208 -1 c-3 -3 -11 0 -18 7 -9 10 -8 11 6 5 10 -3 15 -9 12 -12z
m-2100 -513 c-4 -5 -12 -9 -18 -8 -9 0 -8 2 1 6 6 2 9 10 6 15 -4 7 -2 8 5 4
6 -4 9 -12 6 -17z m1086 -356 c11 -15 11 -16 0 -6 -7 6 -21 9 -30 6 -14 -4
-14 -3 -1 6 8 6 16 11 16 11 1 0 8 -8 15 -17z m129 -3 c-28 -22 -24 -25 15
-10 23 9 26 8 21 -5 -3 -9 -2 -14 2 -11 5 3 27 7 50 10 30 3 40 2 36 -6 -4 -7
-2 -8 5 -4 6 4 9 12 6 17 -11 16 7 10 22 -8 8 -10 12 -12 8 -5 -3 6 -1 12 5
12 6 0 8 5 4 12 -5 7 -3 8 5 4 7 -5 10 -15 7 -25 -5 -12 -2 -11 9 3 8 11 15
14 15 7 0 -7 5 -9 10 -6 6 4 8 11 5 16 -3 5 1 6 10 3 13 -5 13 -9 3 -22 -10
-13 -10 -14 0 -8 7 4 24 10 38 12 15 3 32 6 38 7 6 1 10 -4 8 -11 -1 -8 2 -11
8 -7 6 4 9 13 6 21 -3 7 -1 16 5 19 5 4 9 3 8 -2 -1 -4 -1 -14 0 -22 1 -11 4
-11 18 0 15 12 16 12 9 -6 -5 -15 -4 -17 5 -8 6 6 18 9 27 6 10 -4 13 -2 8 5
-4 7 -2 12 3 12 6 0 11 -4 11 -10 0 -5 5 -10 11 -10 5 0 7 5 4 10 -4 6 -3 9 2
8 4 -1 19 4 33 11 l25 12 -25 -20 c-28 -23 -24 -26 15 -11 23 9 26 8 21 -5 -3
-9 -2 -14 2 -11 5 3 27 7 50 10 30 3 40 2 36 -6 -4 -7 -2 -8 5 -4 6 4 9 12 6
17 -11 16 7 10 22 -8 8 -10 12 -12 8 -5 -3 6 -1 12 5 12 6 0 8 5 4 12 -5 7 -3
8 5 4 7 -5 10 -15 7 -25 -5 -12 -2 -11 9 3 8 11 15 14 15 7 0 -7 5 -9 10 -6 6
4 8 11 5 16 -3 5 1 6 10 3 13 -5 13 -9 3 -22 -10 -13 -10 -14 0 -8 7 4 24 10
38 12 15 3 32 6 38 7 6 1 10 -4 8 -11 -1 -8 2 -11 8 -7 6 4 9 13 6 21 -3 7 -1
16 5 19 5 4 9 3 8 -2 -1 -4 -1 -14 0 -22 1 -11 4 -11 18 0 15 12 16 12 10 -5
-6 -16 -5 -17 7 -7 11 10 16 9 24 -5 8 -15 9 -15 15 0 4 10 3 15 -3 11 -6 -3
-10 -1 -10 5 0 7 6 10 13 8 6 -3 12 -10 12 -16 0 -5 3 -14 7 -18 4 -4 2 -14
-5 -22 -7 -10 -8 -13 -1 -9 8 5 12 -7 11 -39 0 -25 -4 -47 -9 -50 -4 -3 -8
-10 -8 -16 0 -7 5 -6 14 1 12 10 13 8 9 -8 -3 -12 -10 -18 -16 -14 -6 4 -7 1
-1 -8 11 -18 14 -70 3 -63 -5 3 -9 0 -9 -5 0 -6 8 -11 18 -12 14 0 14 -2 -3
-9 -12 -5 -14 -9 -6 -9 11 -1 11 -5 -2 -19 -15 -16 -15 -19 -2 -19 8 0 15 5
15 10 0 6 2 8 5 5 3 -3 -2 -24 -10 -48 -18 -52 -18 -55 -2 -42 9 8 12 5 12
-13 0 -24 -14 -29 -27 -10 -5 6 -8 5 -8 -3 0 -7 6 -15 14 -18 8 -3 17 -12 20
-20 3 -8 2 -13 -3 -10 -10 6 -25 -24 -16 -32 3 -3 5 1 5 9 0 12 2 12 9 -1 12
-18 5 -31 -13 -24 -8 3 -17 1 -20 -4 -3 -5 2 -9 12 -8 13 1 17 -8 18 -42 1
-23 -2 -45 -7 -48 -5 -3 -9 -10 -9 -16 0 -7 5 -6 14 1 12 10 13 8 9 -8 -3 -12
-10 -18 -16 -14 -6 4 -7 1 -1 -8 11 -18 14 -70 3 -63 -5 3 -9 0 -9 -5 0 -6 8
-11 18 -12 14 0 14 -2 -3 -9 -12 -5 -14 -9 -6 -9 11 -1 10 -6 -5 -22 -14 -15
-15 -20 -4 -17 8 2 19 8 23 13 5 6 5 -1 1 -15 -4 -14 -12 -28 -18 -32 -8 -6
-7 -8 2 -8 6 0 12 -7 12 -15 0 -8 -5 -15 -11 -15 -5 0 -7 5 -3 12 5 7 3 8 -5
4 -9 -6 -8 -13 6 -29 12 -13 13 -17 3 -11 -8 5 -19 9 -25 9 -5 1 -9 7 -7 15 2
9 -7 5 -24 -10 -15 -14 -24 -19 -20 -12 4 6 3 12 -1 12 -5 0 -15 -6 -22 -12
-11 -10 -13 -10 -7 0 4 6 3 12 -1 12 -5 0 -15 -6 -22 -12 -11 -10 -13 -10 -7
0 4 6 3 12 -1 12 -5 0 -15 -6 -22 -12 -11 -10 -13 -10 -7 0 4 6 2 12 -3 12 -6
0 -11 -6 -11 -12 0 -10 -2 -10 -8 0 -7 9 -15 10 -35 3 -18 -7 -28 -7 -33 1 -5
7 -2 8 7 3 8 -5 11 -4 6 0 -12 14 -48 14 -37 0 7 -8 4 -11 -10 -10 -11 1 -23
4 -26 8 -12 12 -26 8 -18 -5 6 -10 4 -10 -7 0 -16 15 -33 16 -23 0 5 -7 3 -8
-5 -4 -7 5 -10 15 -7 23 3 8 1 11 -4 8 -6 -3 -10 -14 -10 -23 -1 -15 -2 -15
-15 2 -14 18 -15 18 -15 2 0 -9 -5 -14 -10 -11 -6 4 -8 11 -5 16 4 5 1 9 -4 9
-6 0 -11 -8 -11 -17 0 -15 -2 -16 -10 -3 -9 13 -11 13 -20 0 -9 -13 -10 -13
-10 0 0 13 -1 13 -10 0 -6 -10 -10 -11 -10 -2 0 6 -10 12 -23 12 -13 0 -29 -6
-36 -12 -9 -9 -12 -9 -7 -1 8 15 -14 23 -35 12 -8 -4 -21 -4 -29 1 -17 11 -42
1 -33 -14 3 -6 1 -6 -8 2 -7 6 -17 12 -22 12 -4 0 -5 -6 -1 -12 6 -10 4 -10
-7 0 -7 6 -17 12 -22 12 -4 0 -5 -6 -1 -12 6 -10 4 -10 -7 0 -7 6 -17 12 -22
12 -4 0 -5 -6 -1 -12 6 -10 4 -10 -7 0 -7 6 -17 12 -22 12 -4 0 -5 -6 -1 -12
6 -10 4 -10 -7 0 -15 14 -33 17 -25 4 3 -5 -1 -9 -9 -9 -8 0 -12 4 -10 7 6 9
-46 10 -60 2 -16 -10 -35 -11 -29 -1 3 5 -2 9 -10 9 -9 0 -16 -6 -17 -12 0
-10 -2 -10 -6 0 -4 10 -8 10 -21 0 -9 -8 -13 -8 -9 -2 4 7 0 14 -8 17 -10 4
-12 1 -8 -11 6 -15 5 -15 -10 -3 -14 11 -17 11 -17 0 0 -11 -2 -11 -9 0 -8 13
-12 13 -27 0 -11 -9 -15 -9 -10 -1 4 6 3 12 -1 12 -5 0 -15 -6 -22 -12 -11
-10 -13 -10 -7 0 9 15 -6 16 -21 1 -8 -8 -13 -7 -18 2 -6 8 -4 10 5 4 9 -6 11
-4 6 4 -5 7 -15 10 -23 7 -8 -3 -11 -1 -8 5 4 5 1 18 -7 27 -12 15 -11 16 4 4
12 -10 18 -10 24 -1 4 8 3 9 -4 5 -7 -4 -12 0 -13 11 0 10 -2 25 -4 33 -13 50
-14 70 -6 70 6 0 8 -9 6 -20 -2 -11 -1 -21 3 -24 4 -2 7 148 7 334 0 287 -2
337 -14 332 -9 -3 -12 -1 -7 6 4 7 15 12 24 12 15 0 15 2 2 10 -13 9 -13 11 0
21 12 8 11 9 -6 5 -14 -4 -21 -2 -21 8 0 9 6 12 16 8 14 -5 14 -4 1 13 -12 15
-12 17 -1 10 10 -6 13 -4 9 6 -4 10 3 14 23 15 25 1 27 -1 17 -14 -11 -13 -10
-14 9 -4 26 14 36 15 29 4 -3 -5 1 -9 9 -9 8 0 11 5 8 10 -4 6 0 8 9 4 9 -3
21 0 28 6 9 8 11 8 7 1 -4 -7 3 -11 18 -11 14 0 22 3 19 8 -3 5 0 9 5 9 6 0
11 -4 11 -10 0 -5 5 -10 11 -10 5 0 7 6 3 13 -4 6 -4 9 1 5 4 -4 17 -1 29 7
30 22 35 18 6 -5z m101 -3 c-10 -9 -11 -8 -5 6 3 10 9 15 12 12 3 -3 0 -11 -7
-18z m480 0 c-10 -9 -11 -8 -5 6 3 10 9 15 12 12 3 -3 0 -11 -7 -18z m-501 9
c0 -2 -7 -7 -16 -10 -8 -3 -12 -2 -9 4 6 10 25 14 25 6z m480 0 c0 -2 -7 -7
-16 -10 -8 -3 -12 -2 -9 4 6 10 25 14 25 6z m-810 -196 c0 -5 -5 -10 -11 -10
-5 0 -7 5 -4 10 3 6 8 10 11 10 2 0 4 -4 4 -10z m0 -80 c0 -5 -4 -10 -10 -10
-5 0 -10 5 -10 10 0 6 5 10 10 10 6 0 10 -4 10 -10z m0 -80 c0 -5 -5 -10 -11
-10 -5 0 -7 5 -4 10 3 6 8 10 11 10 2 0 4 -4 4 -10z m2159 -73 c8 -10 7 -14
-2 -14 -8 0 -14 6 -14 14 0 7 1 13 2 13 2 0 8 -6 14 -13z m-2159 -7 c0 -5 -4
-10 -10 -10 -5 0 -10 5 -10 10 0 6 5 10 10 10 6 0 10 -4 10 -10z m0 -80 c0 -5
-5 -10 -11 -10 -5 0 -7 5 -4 10 3 6 8 10 11 10 2 0 4 -4 4 -10z m0 -80 c0 -5
-4 -10 -10 -10 -5 0 -10 5 -10 10 0 6 5 10 10 10 6 0 10 -4 10 -10z m0 -80 c0
-5 -5 -10 -11 -10 -5 0 -7 5 -4 10 3 6 8 10 11 10 2 0 4 -4 4 -10z"/>
<path d="M2444 6254 c-18 -14 -18 -15 4 -4 12 6 22 13 22 15 0 8 -5 6 -26 -11z"/>
<path d="M2426 6118 c3 -5 10 -6 15 -3 13 9 11 12 -6 12 -8 0 -12 -4 -9 -9z"/>
<path d="M2445 5920 c-3 -5 -1 -10 4 -10 6 0 11 5 11 10 0 6 -2 10 -4 10 -3 0
-8 -4 -11 -10z"/>
<path d="M2430 5806 c0 -2 8 -10 18 -17 15 -13 16 -12 3 4 -13 16 -21 21 -21
13z"/>
<path d="M2426 5638 c3 -5 10 -6 15 -3 13 9 11 12 -6 12 -8 0 -12 -4 -9 -9z"/>
<path d="M1318 5488 c-7 -17 15 -19 29 -3 4 4 3 5 -4 2 -6 -4 -13 -2 -15 5 -3
8 -6 6 -10 -4z"/>
<path d="M1380 5485 c0 -10 29 -24 34 -17 3 6 -3 12 -14 15 -11 3 -20 4 -20 2z"/>
<path d="M1700 5485 c0 -10 29 -24 34 -17 3 6 -3 12 -14 15 -11 3 -20 4 -20 2z"/>
<path d="M2020 5485 c0 -10 29 -24 34 -17 3 6 -3 12 -14 15 -11 3 -20 4 -20 2z"/>
<path d="M2340 5485 c0 -10 29 -24 34 -17 3 6 -3 12 -14 15 -11 3 -20 4 -20 2z"/>
<path d="M2445 4480 c-3 -5 -1 -10 4 -10 6 0 11 5 11 10 0 6 -2 10 -4 10 -3 0
-8 -4 -11 -10z"/>
<path d="M2430 4366 c0 -2 8 -10 18 -17 15 -13 16 -12 3 4 -13 16 -21 21 -21
13z"/>
<path d="M2426 4198 c3 -5 10 -6 15 -3 13 9 11 12 -6 12 -8 0 -12 -4 -9 -9z"/>
<path d="M2445 4000 c-3 -5 -1 -10 4 -10 6 0 11 5 11 10 0 6 -2 10 -4 10 -3 0
-8 -4 -11 -10z"/>
<path d="M2430 3886 c0 -2 8 -10 18 -17 15 -13 16 -12 3 4 -13 16 -21 21 -21
13z"/>
<path d="M1295 3781 c-3 -5 -2 -12 3 -15 5 -3 9 1 9 9 0 17 -3 19 -12 6z"/>
<path d="M4700 7280 c0 -5 -9 -10 -21 -10 -11 0 -18 -4 -15 -9 3 -4 -7 -7 -22
-5 -14 1 -33 -3 -42 -9 -13 -10 -13 -10 -2 5 12 15 11 17 -6 15 -13 -1 -18 -6
-14 -16 4 -10 1 -12 -9 -7 -8 4 -6 1 4 -7 16 -14 16 -15 1 -21 -15 -6 -15 -9
5 -27 18 -17 21 -39 5 -39 -3 0 -3 4 0 9 3 5 0 11 -8 14 -10 4 -12 0 -9 -14 3
-10 10 -19 15 -19 5 0 6 -5 3 -10 -4 -6 -12 -7 -18 -4 -9 5 -9 4 0 -6 9 -10 9
-18 1 -34 -10 -19 -9 -19 4 -8 13 10 18 10 24 1 4 -7 3 -9 -3 -6 -6 4 -15 -5
-21 -18 -7 -16 -8 -26 -1 -30 5 -4 8 -1 7 6 -2 6 4 14 12 16 10 3 11 2 4 -4
-6 -4 -10 -24 -8 -43 2 -22 0 -29 -6 -20 -5 8 -6 18 -3 24 3 5 1 6 -5 2 -12
-7 -6 -32 13 -56 22 -27 24 -37 11 -37 -8 0 -12 7 -8 15 4 11 1 13 -8 7 -9 -6
-11 -4 -5 6 5 8 4 11 0 6 -5 -4 -9 -18 -10 -31 0 -17 4 -22 15 -18 12 4 11 1
-3 -15 -12 -14 -15 -23 -7 -28 5 -3 7 -11 4 -17 -4 -7 -2 -8 4 -4 8 5 10 2 6
-8 -3 -9 -10 -14 -14 -11 -5 3 -12 0 -16 -6 -4 -8 -3 -9 4 -5 7 4 12 2 12 -4
0 -6 5 -8 13 -4 8 5 8 2 -2 -9 -7 -9 -9 -17 -4 -17 5 0 10 -7 10 -15 0 -11 -4
-12 -14 -3 -11 8 -12 7 -7 -6 3 -9 9 -16 13 -16 3 0 7 -18 7 -41 1 -23 -2 -35
-7 -28 -4 7 -5 17 -2 23 3 5 1 6 -5 2 -12 -7 -6 -32 13 -56 22 -27 24 -37 11
-37 -8 0 -12 7 -8 15 4 11 1 13 -8 7 -9 -6 -11 -4 -5 6 5 8 4 11 0 6 -5 -4 -9
-18 -10 -31 0 -17 4 -22 15 -18 12 4 11 1 -3 -15 -12 -14 -15 -23 -7 -28 5 -3
7 -11 4 -17 -4 -7 -2 -8 4 -4 8 5 10 2 6 -8 -3 -9 -10 -14 -14 -11 -5 3 -12 0
-16 -6 -4 -8 -3 -9 4 -5 7 4 12 2 12 -4 0 -6 5 -8 13 -4 8 5 8 2 -2 -9 -7 -9
-9 -17 -4 -17 5 0 10 -7 10 -15 0 -11 -4 -12 -14 -4 -23 19 -14 1 12 -25 14
-14 21 -27 16 -30 -5 -3 -12 1 -15 10 -4 9 -9 14 -13 11 -3 -4 0 -13 7 -22 12
-14 15 -14 36 0 21 13 23 13 18 0 -5 -11 -2 -13 10 -9 9 3 13 10 10 15 -3 5 2
6 10 3 9 -3 14 -10 11 -14 -3 -5 -1 -11 4 -14 5 -4 11 1 13 11 2 11 14 17 34
18 23 1 31 -2 27 -12 -4 -9 0 -11 11 -7 9 3 13 10 10 15 -3 5 2 6 10 3 9 -3
13 -11 9 -17 -3 -5 -1 -7 5 -3 6 3 14 2 17 -4 5 -8 11 -8 20 0 7 6 17 10 21 9
24 -4 44 2 38 12 -3 6 4 4 17 -4 13 -8 34 -13 47 -11 13 2 21 0 18 -5 -3 -5 5
-4 18 2 13 7 22 16 18 21 -3 6 8 0 25 -12 18 -12 34 -18 37 -13 8 13 56 11 56
-3 0 -6 4 -5 9 3 8 13 12 13 27 0 16 -13 16 -12 4 11 l-13 25 23 -20 c17 -15
22 -16 18 -5 -4 11 0 16 13 16 11 0 19 -4 19 -8 0 -4 -4 -8 -10 -8 -5 0 -10
-5 -10 -12 0 -9 3 -9 12 0 16 16 31 15 22 0 -6 -10 -4 -10 7 0 16 15 33 16 23
0 -5 -7 -3 -8 5 -4 7 5 10 15 7 23 -4 9 5 7 26 -8 17 -13 28 -18 25 -12 -5 8
0 11 13 10 11 -1 20 -6 20 -12 0 -5 4 -4 9 4 8 13 12 13 27 0 16 -13 16 -12 4
11 -10 21 -10 23 1 13 7 -7 20 -13 28 -13 14 0 14 2 1 11 -13 9 -13 10 0 6 8
-2 15 -12 15 -23 0 -24 14 -46 25 -39 5 3 12 0 16 -6 5 -8 3 -9 -6 -4 -10 6
-12 4 -7 -8 8 -22 -2 -22 -20 1 -12 15 -12 14 -2 -10 8 -18 17 -25 28 -21 11
4 10 1 -4 -11 -11 -10 -15 -15 -8 -12 7 4 10 -1 8 -11 -1 -10 3 -24 9 -32 9
-12 7 -12 -14 -1 l-25 13 20 -23 20 -23 -22 7 c-32 10 -29 -2 4 -15 l26 -10
-21 -19 c-19 -18 -21 -50 -3 -50 3 0 7 -13 7 -30 1 -16 -3 -30 -8 -30 -5 0 -6
5 -3 10 3 6 1 10 -4 10 -17 0 -13 -18 7 -29 14 -8 15 -12 3 -23 -10 -9 -12
-10 -7 0 4 6 2 12 -3 12 -17 0 -13 -15 9 -35 12 -11 17 -22 11 -29 -4 -6 -7
-26 -5 -43 1 -18 -2 -33 -7 -33 -6 0 -7 5 -4 10 3 6 1 10 -4 10 -17 0 -13 -18
7 -29 14 -8 15 -12 3 -23 -10 -9 -12 -10 -7 0 4 6 2 12 -3 12 -17 0 -13 -15 9
-35 12 -11 17 -22 11 -29 -4 -6 -7 -26 -5 -43 1 -18 -2 -33 -7 -33 -6 0 -7 5
-4 10 3 6 1 10 -4 10 -17 0 -13 -18 7 -29 14 -8 15 -12 3 -23 -10 -9 -12 -10
-7 0 4 6 2 12 -3 12 -17 0 -13 -15 9 -35 12 -11 17 -22 11 -29 -4 -6 -7 -26
-5 -43 1 -18 -2 -33 -7 -33 -6 0 -7 5 -4 10 3 6 1 10 -4 10 -17 0 -13 -18 7
-29 14 -8 15 -12 3 -23 -10 -9 -12 -10 -7 0 4 6 2 12 -3 12 -17 0 -13 -15 9
-35 14 -13 17 -21 9 -31 -7 -8 -7 -14 1 -19 6 -3 8 -11 4 -16 -3 -5 -10 -7
-15 -3 -5 3 -7 9 -5 13 3 4 -1 8 -8 8 -11 0 -12 -4 -3 -19 7 -10 16 -18 22
-18 5 0 3 -4 -5 -10 -8 -5 -11 -12 -7 -16 3 -4 12 -3 20 2 7 5 1 -1 -13 -13
l-25 -23 24 5 24 4 -21 -20 c-26 -24 -26 -23 -6 -43 8 -9 11 -16 5 -16 -6 0
-11 -5 -11 -11 0 -5 5 -7 12 -3 6 4 8 3 4 -4 -3 -5 -3 -12 1 -15 5 -2 2 -2 -4
-1 -19 5 -16 -13 4 -20 12 -5 13 -10 5 -18 -8 -8 -8 -17 -1 -31 9 -15 8 -18
-2 -12 -9 6 -11 3 -6 -8 4 -11 -1 -18 -14 -22 -10 -4 -16 -11 -13 -17 4 -7 9
-6 14 2 4 7 13 9 20 5 8 -5 6 -13 -9 -26 -25 -24 -25 -23 -5 -43 8 -9 11 -16
5 -16 -6 0 -11 -5 -11 -11 0 -5 5 -7 12 -3 6 4 8 3 4 -4 -3 -5 -3 -12 1 -15 5
-2 2 -2 -4 -1 -19 5 -16 -13 4 -20 12 -5 13 -10 5 -18 -8 -8 -8 -17 -1 -31 9
-15 8 -18 -2 -12 -9 6 -11 3 -6 -8 4 -11 -1 -18 -14 -22 -10 -4 -16 -11 -13
-17 4 -7 9 -6 14 2 4 7 13 9 20 5 8 -5 6 -13 -9 -26 -18 -17 -20 -49 -2 -49 3
0 7 -13 7 -30 1 -16 -3 -30 -8 -30 -5 0 -6 5 -3 10 3 6 1 10 -4 10 -17 0 -13
-18 7 -29 14 -8 15 -12 3 -23 -10 -9 -12 -10 -7 0 4 6 2 12 -3 12 -17 0 -13
-15 9 -35 12 -11 17 -22 11 -29 -4 -6 -7 -26 -5 -43 1 -18 -2 -33 -7 -33 -6 0
-7 5 -4 10 3 6 1 10 -4 10 -17 0 -13 -18 7 -29 14 -8 15 -12 3 -23 -10 -9 -12
-10 -7 0 4 6 2 12 -3 12 -17 0 -13 -15 9 -35 14 -12 17 -22 10 -30 -5 -6 -6
-16 -2 -20 4 -5 1 -5 -5 -1 -8 4 -13 1 -13 -9 0 -10 5 -13 12 -9 6 4 8 3 4 -4
-3 -5 -3 -12 1 -15 5 -2 2 -2 -4 -1 -7 2 -13 -1 -13 -6 0 -6 5 -10 11 -10 6 0
3 -7 -5 -16 -9 -8 -16 -17 -16 -19 0 -2 7 -11 16 -19 9 -9 11 -16 4 -16 -6 0
-8 -5 -5 -10 4 -6 12 -7 18 -4 8 5 8 3 0 -7 -7 -7 -13 -17 -13 -22 0 -4 6 -5
13 -1 6 4 2 -3 -10 -15 -27 -26 -27 -25 -7 -45 8 -9 11 -16 5 -16 -6 0 -11 -5
-11 -11 0 -5 5 -7 12 -3 6 4 8 3 4 -4 -3 -5 -3 -12 1 -15 5 -2 2 -2 -4 -1 -19
5 -16 -13 3 -20 13 -5 14 -9 5 -20 -8 -10 -9 -16 -1 -21 12 -8 4 -25 -13 -25
-7 0 -6 4 3 10 8 5 11 10 5 10 -5 0 -16 -4 -23 -9 -11 -7 -11 -9 1 -14 10 -4
13 -13 10 -26 -3 -12 -1 -21 5 -21 5 0 12 -7 16 -15 4 -12 2 -13 -13 -6 -13 7
-18 6 -18 -4 0 -8 4 -12 8 -9 4 2 10 0 13 -5 3 -5 -1 -11 -9 -15 -8 -3 -15
-11 -15 -18 0 -10 2 -10 9 1 5 7 14 10 21 6 8 -5 6 -13 -9 -26 -25 -24 -25
-23 -5 -43 8 -9 11 -16 5 -16 -6 0 -11 -5 -11 -11 0 -5 5 -7 12 -3 6 4 8 3 4
-4 -3 -5 -3 -12 1 -15 5 -2 2 -2 -4 -1 -19 5 -16 -13 3 -20 9 -4 14 -9 11 -13
-4 -3 -1 -13 6 -22 11 -14 10 -14 -5 -2 -10 7 -15 17 -12 22 3 5 1 9 -4 9 -18
0 -21 -28 -4 -35 15 -6 15 -8 -3 -22 -19 -15 -19 -15 5 -10 24 6 24 5 6 -8
-11 -8 -14 -15 -8 -15 7 0 12 -4 12 -10 0 -5 -3 -9 -7 -9 -21 3 -33 -2 -27
-12 4 -8 9 -8 13 -1 4 7 12 8 21 2 11 -7 12 -10 2 -10 -7 0 -11 -3 -8 -8 2 -4
-2 -18 -10 -32 -7 -14 -13 -21 -14 -17 0 5 4 16 9 26 7 13 6 18 -4 18 -8 0
-14 -3 -13 -6 2 -20 -3 -31 -12 -26 -5 3 -10 0 -10 -7 0 -9 -3 -9 -10 2 -8 12
-11 13 -19 1 -7 -11 -9 -11 -14 0 -5 12 -7 12 -15 0 -8 -11 -10 -11 -15 0 -5
12 -7 12 -15 0 -8 -11 -10 -11 -14 0 -4 12 -8 11 -23 -1 -10 -8 -16 -10 -12
-4 7 12 -40 17 -58 6 -16 -10 -35 -11 -29 -1 3 5 -1 9 -10 9 -8 0 -17 -6 -19
-12 -4 -10 -6 -9 -6 1 -1 11 -4 11 -18 0 -9 -8 -14 -9 -10 -3 7 12 -21 29 -31
19 -3 -3 0 -5 6 -5 7 0 12 -4 12 -8 0 -11 -37 -9 -47 3 -5 4 -1 5 7 0 8 -5 12
-4 7 0 -12 14 -48 14 -37 0 7 -8 4 -11 -10 -10 -11 1 -23 4 -26 8 -12 12 -26
8 -18 -5 6 -10 4 -10 -7 0 -16 15 -33 16 -23 0 5 -7 3 -8 -5 -4 -7 5 -10 15
-7 23 3 8 1 11 -4 8 -6 -3 -10 -14 -10 -23 -1 -15 -2 -15 -15 2 -14 18 -15 18
-15 2 0 -9 -5 -14 -10 -11 -6 4 -8 11 -5 16 4 5 1 9 -4 9 -6 0 -11 -8 -11 -17
0 -15 -2 -16 -10 -3 -9 13 -11 13 -20 0 -9 -13 -10 -13 -10 0 0 13 -1 13 -10
0 -5 -8 -10 -10 -10 -4 0 7 -9 14 -21 17 -15 4 -18 2 -10 -7 8 -9 6 -12 -9
-11 -11 1 -23 5 -27 10 -5 4 -1 5 7 0 8 -5 12 -4 7 0 -12 14 -48 14 -37 0 7
-8 4 -11 -10 -10 -11 1 -23 4 -26 8 -12 12 -26 8 -18 -5 6 -10 4 -10 -7 0 -16
15 -33 16 -23 0 5 -7 3 -8 -5 -4 -7 5 -10 15 -7 23 3 8 1 11 -4 8 -6 -3 -10
-12 -10 -20 0 -13 -23 -15 -36 -2 -12 11 -23 -3 -17 -20 4 -10 2 -14 -4 -10
-5 3 -10 0 -10 -8 0 -8 5 -11 10 -8 6 4 8 0 4 -10 -3 -10 -2 -17 4 -17 6 0 7
-5 4 -10 -4 -6 -12 -7 -18 -4 -9 5 -9 4 0 -6 6 -7 9 -19 6 -28 -4 -9 -2 -13 4
-9 5 3 10 0 10 -8 0 -8 -4 -12 -8 -10 -3 3 -9 -6 -11 -20 -4 -20 -3 -23 8 -14
19 16 17 4 -3 -29 -16 -24 -16 -26 -1 -14 15 12 17 11 15 -7 0 -11 -5 -17 -9
-15 -4 3 -8 0 -8 -5 0 -6 4 -11 9 -11 14 0 7 -30 -10 -41 -11 -7 -10 -9 6 -9
17 0 17 -2 5 -10 -8 -5 -10 -10 -4 -10 17 0 25 -28 12 -36 -6 -4 -8 -3 -5 3 4
6 1 13 -7 16 -10 4 -12 0 -9 -14 3 -10 10 -19 15 -19 5 0 6 -5 3 -10 -4 -6
-12 -7 -18 -4 -9 5 -9 4 0 -6 9 -10 9 -18 1 -34 -10 -19 -9 -19 4 -8 13 10 18
10 24 1 4 -7 3 -9 -3 -6 -6 4 -15 -5 -21 -18 -7 -16 -8 -26 -1 -30 5 -4 8 -1
7 6 -2 6 4 14 12 16 10 3 11 2 4 -4 -6 -4 -10 -24 -8 -43 2 -22 0 -29 -6 -20
-5 8 -6 18 -3 24 3 5 1 6 -5 2 -12 -7 -6 -32 13 -56 22 -27 24 -37 11 -37 -8
0 -12 7 -8 15 4 11 1 13 -8 7 -9 -6 -11 -4 -5 6 5 8 4 11 0 6 -5 -4 -9 -18
-10 -31 0 -17 4 -22 15 -18 12 4 11 1 -3 -15 -12 -14 -15 -23 -7 -28 5 -3 7
-11 4 -17 -4 -7 -2 -8 4 -4 8 5 10 2 6 -8 -3 -9 -10 -14 -14 -11 -5 3 -12 0
-16 -6 -4 -8 -3 -9 4 -5 7 4 12 2 12 -4 0 -6 5 -8 13 -4 8 5 8 2 -2 -9 -7 -9
-9 -17 -4 -17 5 0 10 -7 10 -15 0 -11 -4 -12 -14 -3 -11 8 -12 7 -7 -6 3 -9
11 -16 18 -16 6 0 3 -5 -7 -11 -14 -8 -16 -14 -6 -25 6 -7 16 -11 22 -7 6 3 7
1 3 -6 -4 -6 -11 -9 -16 -6 -5 3 -12 0 -16 -6 -5 -8 -3 -9 6 -4 9 6 10 2 5
-15 -5 -15 -3 -20 3 -16 6 3 13 2 17 -3 3 -6 15 -7 29 -1 12 4 28 5 33 2 13
-8 132 -6 140 2 3 3 15 1 25 -5 14 -8 23 -8 31 0 7 7 16 7 29 0 13 -7 18 -6
18 3 0 9 3 9 10 -2 7 -11 10 -11 10 -2 0 10 5 10 20 2 14 -8 20 -8 20 0 0 7 6
8 19 0 24 -12 34 -13 27 -1 -7 11 13 9 32 -2 7 -5 12 -3 12 3 0 8 6 8 20 0 15
-8 20 -8 20 2 0 9 3 9 10 -2 6 -10 10 -11 10 -2 0 6 7 12 16 12 8 0 13 -3 11
-7 -3 -5 6 -8 19 -8 13 0 24 5 24 10 0 6 5 3 10 -5 5 -8 10 -10 10 -4 0 7 7
15 16 18 13 5 14 4 6 -7 -9 -11 -7 -13 11 -13 12 1 25 6 29 11 5 6 8 4 8 -5 0
-13 1 -13 10 0 9 13 10 13 10 0 0 -13 1 -13 10 0 5 8 10 10 10 4 0 -6 7 -11
15 -11 8 0 12 4 9 9 -3 4 -1 8 5 8 5 0 12 -6 14 -12 4 -10 6 -10 6 0 1 10 6
10 21 2 15 -8 20 -8 20 2 0 9 3 9 10 -2 8 -12 10 -12 10 -1 0 11 3 11 15 1 11
-9 15 -9 15 -1 0 9 5 9 20 1 15 -8 20 -8 20 2 0 9 3 9 10 -2 5 -8 10 -10 10
-5 0 6 24 10 54 10 30 0 53 -2 51 -5 -2 -3 8 -5 21 -5 13 0 24 5 24 10 0 6 5
3 10 -5 5 -8 10 -10 10 -4 0 7 7 15 16 18 13 5 14 3 6 -6 -8 -10 -5 -13 14
-13 13 0 24 5 24 10 0 6 5 3 10 -5 6 -10 10 -11 10 -2 0 6 5 12 11 12 5 0 8
-3 6 -7 -3 -5 6 -8 19 -8 13 0 24 5 24 10 0 6 5 3 10 -5 5 -8 10 -10 10 -4 0
7 7 15 16 18 13 5 14 4 6 -7 -9 -11 -7 -13 11 -13 12 1 25 6 29 11 5 6 8 4 8
-5 0 -13 1 -13 10 0 9 13 10 13 10 0 0 -13 1 -13 10 0 5 8 10 10 10 4 0 -6 7
-11 15 -11 8 0 12 4 9 9 -3 4 -1 8 5 8 5 0 12 -6 14 -12 4 -10 6 -10 6 0 1 10
6 10 21 2 15 -8 20 -8 20 2 0 9 3 9 10 -2 8 -12 10 -12 10 -1 0 11 3 11 15 1
11 -9 15 -9 15 -1 0 9 5 9 20 1 15 -8 20 -8 20 2 0 9 3 9 10 -2 5 -8 10 -10
10 -5 0 6 24 10 54 10 30 0 53 -2 51 -5 -2 -3 8 -5 21 -5 13 0 24 5 24 10 0 6
5 3 10 -5 5 -8 10 -10 10 -4 0 7 7 15 16 18 13 5 14 3 6 -6 -8 -10 -5 -13 14
-13 13 0 24 5 24 10 0 6 5 3 10 -5 6 -10 10 -11 10 -2 0 6 5 12 11 12 5 0 8
-3 6 -7 -3 -5 6 -8 19 -8 13 0 24 5 24 10 0 6 5 3 10 -5 5 -8 10 -10 10 -4 0
7 7 15 16 18 13 5 14 4 6 -7 -9 -11 -7 -13 11 -13 12 1 25 6 29 11 5 6 8 4 8
-5 0 -13 1 -13 10 0 9 13 10 13 10 0 0 -13 1 -13 10 0 5 8 10 10 10 4 0 -6 7
-11 15 -11 8 0 12 4 9 9 -3 4 -1 8 5 8 5 0 12 -6 14 -12 4 -10 6 -10 6 0 1 10
6 10 21 2 15 -8 20 -8 20 2 0 9 3 9 10 -2 8 -12 10 -12 10 -1 0 11 3 11 15 1
11 -9 15 -9 15 -1 0 9 5 9 20 1 15 -8 20 -8 20 2 0 9 3 9 10 -2 5 -8 10 -10
10 -5 0 6 24 10 54 10 30 0 53 -2 51 -5 -2 -3 8 -5 21 -5 13 0 24 5 24 10 0 6
5 3 10 -5 5 -8 10 -10 10 -4 0 7 7 15 16 18 13 5 14 3 6 -6 -8 -10 -5 -13 14
-13 13 0 24 5 24 10 0 6 5 3 10 -5 6 -10 10 -11 10 -2 0 6 5 12 11 12 5 0 8
-3 6 -7 -3 -5 6 -8 19 -8 13 0 24 5 24 10 0 6 5 3 10 -5 5 -8 10 -10 10 -4 0
7 7 15 16 18 13 5 14 4 6 -7 -9 -11 -7 -13 11 -13 12 1 25 6 29 11 5 6 8 5 8
-3 0 -7 4 -11 9 -8 4 3 37 6 72 7 75 3 84 6 69 24 -8 10 -8 15 1 21 8 5 9 3 4
-6 -5 -9 -4 -11 3 -6 8 5 8 15 2 32 -13 33 -13 37 3 28 9 -6 9 -4 0 7 -17 17
-17 32 0 23 9 -6 9 -4 0 7 -17 17 -17 34 0 23 7 -5 4 -1 -6 9 -16 14 -16 17
-4 17 9 0 19 5 22 10 4 6 1 9 -6 8 -6 -2 -14 3 -17 11 -3 9 0 11 9 6 8 -5 6 1
-4 12 -18 21 -14 57 7 47 6 -3 2 2 -8 10 -19 16 -19 16 -1 16 15 0 16 3 7 12
-16 16 -15 31 1 22 6 -4 4 2 -6 13 -19 22 -13 59 7 46 7 -5 3 0 -7 10 -16 14
-16 17 -4 17 9 0 19 5 22 10 4 6 1 9 -6 8 -6 -2 -14 3 -17 11 -3 9 0 11 9 6 8
-5 6 1 -4 12 -18 21 -14 57 7 47 6 -3 2 2 -8 10 -19 16 -19 16 -1 16 15 0 16
3 7 12 -16 16 -15 31 1 22 6 -4 4 2 -6 13 -19 22 -13 59 7 46 7 -5 3 1 -9 11
l-20 19 23 -6 c22 -5 23 -4 8 12 -17 19 -22 36 -7 26 5 -3 13 0 17 6 4 7 3 9
-3 6 -23 -14 -35 29 -19 65 4 9 5 22 1 28 -3 5 2 10 12 11 13 1 11 3 -7 9 -14
4 -20 8 -14 9 7 1 14 12 16 26 3 13 2 22 -3 20 -4 -3 -10 -1 -13 3 -3 5 -28 9
-56 8 -39 -2 -50 1 -50 13 0 14 -2 14 -9 2 -7 -12 -15 -12 -33 -4 -24 10 -52
7 -44 -6 3 -4 -1 -8 -9 -8 -8 0 -12 4 -10 8 3 4 -2 10 -11 13 -8 3 -12 2 -9
-3 3 -5 1 -12 -5 -16 -5 -3 -10 -1 -10 6 0 8 -5 7 -17 -2 -9 -8 -14 -9 -10 -3
4 7 0 14 -8 17 -10 4 -12 1 -8 -11 6 -15 5 -15 -10 -3 -10 8 -24 10 -34 6 -28
-12 -44 -14 -37 -4 3 5 -1 9 -10 9 -8 0 -17 -6 -19 -12 -4 -10 -6 -9 -6 1 -1
11 -4 11 -18 0 -9 -8 -14 -9 -10 -3 4 7 0 14 -8 17 -10 4 -12 1 -8 -11 6 -14
4 -15 -9 -4 -13 10 -17 10 -21 0 -4 -10 -6 -10 -6 0 -1 6 -8 12 -17 12 -9 0
-12 -5 -8 -12 5 -9 2 -9 -9 1 -14 11 -17 11 -17 0 0 -11 -2 -11 -10 1 -8 12
-11 13 -19 1 -7 -11 -9 -11 -14 0 -5 12 -7 12 -15 0 -8 -11 -10 -11 -15 0 -5
12 -7 12 -15 0 -8 -11 -10 -11 -15 0 -5 12 -7 12 -15 0 -8 -11 -10 -11 -15 0
-5 12 -7 12 -15 0 -8 -11 -10 -11 -15 0 -5 12 -7 12 -15 0 -8 -11 -10 -11 -14
0 -4 12 -8 11 -23 -1 -10 -8 -16 -10 -12 -4 4 7 -2 14 -13 17 -11 3 -18 1 -15
-3 3 -5 1 -11 -5 -15 -5 -3 -10 -1 -10 6 0 8 -5 7 -17 -2 -9 -8 -14 -9 -10 -2
11 18 -16 22 -37 4 -18 -15 -19 -15 -12 4 8 23 9 25 7 43 0 7 -6 10 -12 6 -8
-5 -8 -1 0 14 8 15 8 23 0 28 -8 4 -7 9 2 14 10 7 9 14 -5 34 -14 23 -15 27
-2 32 8 3 12 12 10 19 -3 7 0 24 7 37 11 21 11 22 -5 9 -14 -12 -16 -12 -11 0
10 27 12 90 2 96 -5 3 -3 9 4 13 10 7 9 14 -5 34 -14 23 -15 27 -2 32 8 3 12
12 10 19 -3 7 0 24 7 37 11 21 11 22 -5 9 -14 -12 -16 -12 -11 0 10 27 12 90
2 96 -5 3 -3 9 4 13 10 7 9 14 -5 34 -13 20 -14 27 -4 31 7 3 13 19 14 35 1
16 -2 27 -6 25 -4 -2 -5 7 -2 20 2 14 9 22 16 19 6 -3 2 2 -8 10 -11 9 -16 16
-10 16 5 0 9 494 9 1299 0 715 -4 1297 -8 1294 -5 -3 -4 4 2 16 11 20 8 25
-12 22 -5 -1 -5 3 -2 9 4 6 14 9 24 6 13 -5 13 -4 -2 8 -13 10 -15 15 -5 19 9
3 8 9 -7 22 -11 9 -15 14 -9 11 19 -9 23 43 5 62 -15 15 -15 15 1 10 26 -10
29 18 5 39 -16 13 -18 13 -9 2 10 -14 10 -18 -3 -23 -9 -3 -13 -2 -10 3 3 5 1
12 -4 15 -5 3 -12 -1 -15 -10 -5 -13 -9 -14 -20 -5 -21 18 -59 23 -53 7 3 -7
-1 -13 -9 -13 -7 0 -11 4 -8 9 8 12 -24 10 -49 -4 -20 -10 -21 -9 -9 5 11 13
11 15 0 13 -7 -1 -19 -5 -25 -9 -12 -8 -17 -2 -14 16 1 5 -3 6 -9 2 -6 -3 -8
-11 -5 -16 9 -13 -9 -11 -23 3 -9 9 -12 8 -12 -5 0 -9 -5 -17 -11 -17 -5 0 -7
5 -3 12 5 8 -2 9 -25 5 -19 -4 -30 -3 -26 3 3 5 -4 7 -17 4 -13 -3 -60 -5
-106 -5 -52 1 -81 -3 -77 -9 3 -6 1 -10 -4 -10 -6 0 -11 6 -11 13 0 7 -13 12
-30 12 -33 0 -36 -4 -17 -25 6 -8 -1 -4 -16 10 -16 14 -28 21 -27 15 5 -24 -1
-27 -16 -9 -15 18 -15 18 -10 0 5 -14 3 -16 -6 -9 -17 14 -111 16 -103 3 3 -6
1 -10 -4 -10 -6 0 -11 6 -11 14 0 9 -8 12 -26 8 -18 -3 -24 -9 -19 -21 3 -9
-3 -5 -14 8 -18 23 -19 23 -24 5 -4 -15 -5 -14 -6 6 l-2 25 -11 -25 c-10 -24
-10 -24 -18 -5 -8 19 -9 19 -9 1 -1 -20 -1 -20 -17 0 -15 19 -16 19 -9 0 6
-20 6 -20 -16 0 -12 10 -19 14 -16 7 4 -6 3 -14 -3 -18 -5 -3 -10 1 -10 9 0 9
-5 16 -11 16 -6 0 -8 -7 -5 -16 5 -14 4 -15 -8 -5 -21 18 -59 23 -53 7 3 -7
-1 -13 -9 -13 -7 0 -11 4 -8 9 8 12 -24 10 -49 -4 -20 -10 -21 -9 -9 5 11 13
11 15 0 13 -7 -1 -19 -5 -25 -9 -12 -8 -17 -2 -14 16 1 5 -3 6 -9 2 -6 -3 -8
-11 -5 -16 9 -13 -9 -11 -23 3 -9 9 -12 8 -12 -5 0 -9 -5 -17 -11 -17 -5 0 -7
5 -3 12 5 8 -2 9 -25 5 -19 -4 -30 -3 -26 3 3 5 -4 7 -17 4 -13 -3 -60 -5
-106 -5 -52 1 -81 -3 -77 -9 3 -6 1 -10 -4 -10 -6 0 -11 6 -11 13 0 7 -13 12
-30 12 -33 0 -36 -4 -17 -25 6 -8 -1 -4 -16 10 -16 14 -28 21 -27 15 5 -24 -1
-27 -16 -9 -15 19 -16 19 -9 0 6 -20 6 -20 -16 0 -12 10 -19 14 -16 8 12 -20
-25 -25 -46 -7 -11 10 -17 12 -13 6 4 -8 1 -13 -8 -13 -10 0 -13 6 -10 15 4 8
3 15 0 15 -3 0 -6 -4 -6 -10z m704 -26 c3 -8 2 -12 -4 -9 -6 3 -10 10 -10 16
0 14 7 11 14 -7z m960 0 c3 -8 2 -12 -4 -9 -6 3 -10 10 -10 16 0 14 7 11 14
-7z m-1759 -394 c3 -5 1 -10 -4 -10 -6 0 -11 5 -11 10 0 6 2 10 4 10 3 0 8 -4
11 -10z m0 -320 c3 -5 1 -10 -4 -10 -6 0 -11 5 -11 10 0 6 2 10 4 10 3 0 8 -4
11 -10z m229 -171 c-3 -5 -10 -7 -15 -3 -5 3 -7 10 -3 15 3 5 10 7 15 3 5 -3
7 -10 3 -15z m46 15 c0 -8 -19 -13 -24 -6 -3 5 1 9 9 9 8 0 15 -2 15 -3z m85
-3 c-9 -8 -36 -10 -30 -2 2 4 11 8 20 8 8 0 13 -3 10 -6z m109 -12 c-3 -5 -10
-7 -15 -3 -5 3 -7 10 -3 15 3 5 10 7 15 3 5 -3 7 -10 3 -15z m71 12 c-8 -7
-45 -9 -50 -1 -2 3 9 6 25 6 17 0 27 -2 25 -5z m125 3 c0 -8 -19 -13 -24 -6
-3 5 1 9 9 9 8 0 15 -2 15 -3z m60 -4 c0 -5 -2 -10 -4 -10 -3 0 -8 5 -11 10
-3 6 -1 10 4 10 6 0 11 -4 11 -10z m55 1 c-9 -8 -36 -10 -30 -2 2 4 11 8 20 8
8 0 13 -3 10 -6z m105 -5 c0 -3 -4 -8 -10 -11 -5 -3 -10 -1 -10 4 0 6 5 11 10
11 6 0 10 -2 10 -4z m0 -30 c0 -11 -19 -15 -25 -6 -3 5 1 10 9 10 9 0 16 -2
16 -4z m4 -237 c-3 -5 -10 -7 -15 -3 -5 3 -7 10 -3 15 3 5 10 7 15 3 5 -3 7
-10 3 -15z m0 -800 c-3 -5 -10 -7 -15 -3 -5 3 -7 10 -3 15 3 5 10 7 15 3 5 -3
7 -10 3 -15z m0 -240 c-3 -5 -10 -7 -15 -3 -5 3 -7 10 -3 15 3 5 10 7 15 3 5
-3 7 -10 3 -15z m0 -240 c-3 -5 -10 -7 -15 -3 -5 3 -7 10 -3 15 3 5 10 7 15 3
5 -3 7 -10 3 -15z m-2 -426 c-6 -2 -9 -10 -6 -15 4 -7 2 -8 -5 -4 -13 9 -5 26
12 25 9 0 8 -2 -1 -6z m2 -134 c-3 -5 -10 -7 -15 -3 -5 3 -7 10 -3 15 3 5 10
7 15 3 5 -3 7 -10 3 -15z m-3 -182 c-10 -9 -11 -8 -5 6 3 10 9 15 12 12 3 -3
0 -11 -7 -18z m3 -138 c-3 -5 -10 -7 -15 -3 -5 3 -7 10 -3 15 3 5 10 7 15 3 5
-3 7 -10 3 -15z m-889 -929 c3 -5 1 -10 -4 -10 -6 0 -11 5 -11 10 0 6 2 10 4
10 3 0 8 -4 11 -10z m5 -220 c0 -5 -2 -10 -4 -10 -3 0 -8 5 -11 10 -3 6 -1 10
4 10 6 0 11 -4 11 -10z"/>
<path d="M8054 7282 c5 -8 -1 -12 -14 -12 -12 0 -18 -4 -15 -10 3 -6 -1 -7 -9
-4 -9 3 -13 10 -10 15 3 5 -2 6 -10 3 -9 -3 -13 -10 -10 -15 3 -5 0 -9 -5 -9
-6 0 -11 6 -11 13 0 7 -13 12 -30 12 -33 0 -36 -4 -17 -25 10 -12 9 -12 -5 -1
-21 15 -42 5 -33 -16 5 -14 3 -14 -12 -2 -15 13 -15 12 -6 -5 7 -13 8 -29 2
-44 -5 -13 -5 -21 0 -18 5 3 12 -1 15 -10 3 -8 2 -12 -4 -9 -14 9 -12 -8 3
-24 7 -9 8 -11 0 -7 -8 4 -10 -8 -9 -42 1 -26 -2 -55 -6 -64 -5 -11 -5 -18 2
-18 5 0 10 5 10 12 0 6 3 8 6 5 4 -4 2 -12 -4 -19 -17 -21 -18 -54 -2 -73 11
-14 11 -17 1 -11 -10 7 -12 3 -6 -14 5 -15 4 -20 -4 -16 -7 5 -9 1 -5 -8 3 -9
11 -16 18 -16 6 0 5 -4 -3 -9 -12 -8 -12 -12 -2 -24 9 -12 9 -17 0 -23 -8 -5
-9 -3 -4 6 5 8 4 11 -3 6 -13 -8 -5 -36 12 -36 6 0 4 -5 -4 -10 -12 -7 -12
-12 -2 -22 6 -6 12 -17 12 -22 0 -6 -5 -4 -10 4 -8 11 -10 6 -8 -20 1 -19 6
-41 12 -49 9 -12 8 -13 -3 -7 -9 6 -12 5 -9 -5 3 -8 1 -22 -4 -31 -5 -12 -5
-18 2 -18 5 0 10 5 10 12 0 6 3 8 6 5 4 -4 2 -12 -4 -20 -6 -7 -10 -37 -8 -67
1 -30 -2 -63 -6 -72 -5 -11 -5 -18 2 -18 5 0 10 5 10 12 0 6 3 9 6 6 3 -4 -2
-18 -11 -32 -16 -24 -16 -26 -1 -26 9 0 16 -7 16 -16 0 -14 2 -14 16 1 9 9 19
13 22 10 4 -3 0 -10 -8 -15 -11 -7 -9 -9 8 -7 14 1 21 6 17 14 -3 11 0 11 15
3 11 -6 25 -8 31 -5 16 11 59 13 59 4 0 -5 -4 -9 -10 -9 -5 0 -10 -5 -10 -12
0 -9 3 -9 12 0 16 16 31 15 22 0 -4 -7 4 -3 18 10 17 16 28 20 33 13 3 -7 3
-10 -2 -9 -4 2 -9 0 -11 -4 -5 -17 -1 -20 12 -9 8 6 18 11 22 10 24 -4 44 2
38 12 -3 6 4 4 17 -4 13 -8 34 -13 47 -11 13 2 21 0 18 -5 -3 -5 5 -4 18 2 13
7 22 16 18 21 -3 6 8 0 25 -12 20 -14 34 -19 38 -12 4 6 12 10 18 9 29 -4 48
2 41 12 -3 6 4 4 17 -4 13 -8 34 -13 47 -11 13 2 21 0 18 -5 -3 -5 5 -4 18 2
13 7 22 16 18 21 -3 6 8 0 25 -12 20 -14 34 -19 38 -12 4 6 12 10 18 9 31 -4
48 2 41 13 -4 6 3 4 15 -4 13 -9 34 -14 48 -12 14 3 22 1 19 -5 -3 -5 5 -4 18
2 13 7 22 16 18 21 -3 6 8 0 25 -12 20 -14 34 -19 38 -12 4 6 12 10 18 9 31
-4 48 2 41 14 -6 9 -4 9 8 -1 20 -16 61 -25 53 -11 -4 5 -11 6 -17 3 -7 -4 -8
-2 -4 4 5 9 13 9 27 2 11 -7 17 -16 12 -23 -4 -6 6 -2 22 11 15 12 30 20 33
17 3 -3 -2 -11 -12 -18 -16 -12 -16 -13 3 -13 11 0 18 3 15 7 -2 4 3 13 12 20
8 7 14 8 13 3 -4 -20 2 -28 11 -14 7 12 12 11 31 -5 12 -11 19 -15 16 -8 -14
23 12 23 30 0 16 -22 19 -22 33 -8 8 9 12 12 8 7 -11 -14 -10 -28 1 -22 11 7
8 -21 -4 -31 -4 -4 -5 -2 0 6 5 9 4 12 -3 7 -8 -5 -8 -15 -2 -32 6 -14 8 -39
5 -55 -3 -16 -1 -38 5 -49 8 -15 7 -18 -3 -14 -9 3 -13 -4 -13 -26 0 -18 4
-29 11 -27 6 3 11 -3 11 -13 0 -10 -5 -16 -11 -13 -7 2 -12 -3 -12 -11 0 -8 4
-13 8 -11 4 3 10 -2 13 -11 3 -8 2 -13 -3 -10 -18 12 -21 -27 -4 -47 10 -11
12 -17 6 -13 -7 4 -13 3 -13 -1 0 -5 6 -15 13 -22 10 -11 9 -13 -4 -8 -10 3
-16 -1 -16 -9 0 -9 6 -13 14 -10 9 4 11 1 7 -6 -9 -14 -10 -69 -1 -92 4 -10 3
-15 -3 -11 -14 9 -12 -8 3 -24 10 -11 9 -13 -4 -8 -10 3 -16 -1 -16 -9 0 -9 6
-13 16 -9 11 4 10 0 -5 -16 -10 -12 -14 -19 -8 -16 7 4 15 0 18 -9 3 -8 2 -13
-3 -10 -18 12 -21 -27 -4 -47 10 -11 12 -17 6 -13 -7 4 -13 3 -13 -1 0 -5 6
-15 13 -22 10 -11 9 -13 -4 -8 -10 3 -16 -1 -16 -9 0 -9 6 -13 14 -10 9 4 11
1 7 -6 -9 -14 -10 -69 -1 -92 4 -10 3 -15 -3 -11 -14 9 -12 -8 3 -24 10 -11 9
-13 -4 -8 -10 3 -16 -1 -16 -9 0 -9 6 -13 14 -10 9 4 11 2 6 -7 -12 -20 -14
-47 -3 -67 8 -15 7 -18 -3 -14 -9 3 -13 -4 -13 -26 0 -18 4 -29 11 -27 6 3 11
-3 11 -13 0 -10 -6 -16 -13 -13 -9 4 -11 0 -7 -11 3 -9 10 -13 15 -10 8 5 6
-7 -8 -46 -10 -27 -11 -40 -3 -35 4 3 11 -2 14 -11 3 -8 2 -12 -4 -9 -14 9
-12 -8 3 -24 10 -11 10 -13 0 -7 -7 4 -13 3 -13 -1 0 -5 6 -15 13 -22 8 -10 8
-12 0 -7 -6 3 -14 2 -18 -4 -3 -5 -1 -10 5 -10 6 0 8 -4 5 -10 -11 -18 -14
-51 -4 -45 5 4 7 10 4 15 -3 5 -1 11 4 15 6 3 8 -4 5 -17 -17 -71 -17 -71 -4
-63 9 5 11 4 6 -4 -14 -21 -17 -61 -6 -81 8 -15 7 -18 -3 -14 -9 3 -13 -4 -13
-26 0 -18 4 -29 11 -27 6 3 11 -3 11 -13 0 -10 -5 -16 -11 -13 -7 2 -12 -3
-12 -11 0 -8 4 -13 8 -11 4 3 10 -2 13 -11 3 -8 2 -13 -3 -10 -18 12 -21 -27
-4 -47 10 -11 12 -17 6 -13 -7 4 -13 3 -13 -1 0 -5 6 -15 13 -22 10 -11 9 -13
-4 -8 -10 3 -16 -1 -16 -9 0 -9 6 -13 14 -10 9 4 11 1 7 -6 -9 -14 -10 -69 -1
-92 4 -10 3 -15 -3 -11 -14 9 -12 -8 3 -24 10 -11 9 -13 -4 -8 -10 3 -16 -1
-16 -9 0 -9 6 -13 16 -9 11 4 10 0 -5 -16 -10 -12 -14 -19 -8 -16 7 4 15 0 18
-9 3 -8 2 -13 -3 -10 -18 12 -21 -27 -4 -47 10 -11 12 -17 6 -13 -7 4 -13 3
-13 -1 0 -5 6 -15 13 -22 10 -11 9 -13 -4 -8 -10 3 -16 -1 -16 -9 0 -9 6 -13
14 -10 9 4 11 1 7 -6 -9 -14 -10 -69 -1 -92 4 -10 3 -15 -3 -11 -14 9 -12 -8
3 -24 10 -11 9 -13 -4 -8 -10 3 -16 -1 -16 -9 0 -9 6 -13 14 -10 9 4 11 2 6
-7 -12 -20 -14 -47 -3 -67 8 -15 7 -18 -3 -14 -9 3 -13 -4 -13 -26 0 -18 4
-29 11 -27 6 3 11 -3 11 -13 0 -10 -6 -16 -13 -13 -9 4 -11 0 -7 -11 3 -9 10
-13 15 -10 8 5 7 -6 -8 -43 -10 -30 -12 -43 -3 -38 4 3 11 -2 14 -11 3 -8 2
-12 -4 -9 -14 9 -12 -8 3 -24 10 -11 10 -13 0 -7 -7 4 -13 3 -13 -1 0 -5 6
-15 13 -22 8 -10 8 -12 0 -7 -6 3 -14 2 -18 -4 -3 -5 -1 -10 5 -10 6 0 8 -4 5
-10 -11 -18 -14 -51 -4 -45 5 4 7 10 4 15 -3 5 -1 11 4 15 6 3 8 -4 5 -17 -17
-71 -17 -71 -4 -63 9 5 11 4 6 -4 -14 -21 -17 -61 -6 -81 8 -15 7 -18 -3 -14
-9 3 -13 -4 -13 -26 0 -18 4 -29 11 -27 6 3 11 -3 11 -13 0 -10 -5 -16 -11
-13 -7 2 -12 -3 -12 -11 0 -8 4 -13 8 -11 4 3 10 -2 13 -11 3 -8 2 -13 -3 -10
-18 12 -21 -27 -4 -47 10 -11 12 -17 6 -13 -7 4 -13 3 -13 -1 0 -5 6 -15 13
-22 10 -11 9 -13 -4 -8 -10 3 -16 -1 -16 -9 0 -9 6 -13 14 -10 9 4 11 1 7 -6
-9 -14 -10 -69 -1 -92 4 -10 3 -15 -3 -11 -14 9 -12 -8 3 -24 10 -11 9 -13 -4
-8 -10 3 -16 -1 -16 -9 0 -9 6 -13 16 -9 11 4 10 0 -5 -16 -10 -12 -14 -19 -8
-16 7 4 15 0 18 -9 3 -8 2 -13 -3 -10 -18 12 -21 -27 -4 -47 10 -11 12 -17 6
-13 -7 4 -13 3 -13 -1 0 -5 6 -15 13 -22 10 -11 9 -13 -4 -8 -10 3 -16 -1 -16
-9 0 -9 6 -13 14 -10 9 4 11 1 7 -6 -9 -14 -10 -69 -1 -92 4 -10 3 -15 -3 -11
-14 9 -12 -8 3 -24 10 -11 9 -13 -4 -8 -10 3 -16 -1 -16 -9 0 -9 6 -13 15 -9
12 4 13 3 2 -10 -7 -8 -9 -15 -6 -15 4 0 2 -9 -4 -20 -7 -14 -7 -20 0 -20 5 0
10 5 10 11 0 5 5 7 10 4 6 -4 5 -12 -4 -21 -28 -27 -10 -41 44 -34 33 4 50 3
50 -4 0 -6 5 -4 10 4 5 8 10 10 10 4 0 -6 7 -11 15 -11 8 0 12 4 9 9 -3 4 -1
8 5 8 5 0 12 -6 14 -12 4 -10 6 -10 6 0 1 10 6 10 21 2 15 -8 20 -8 20 2 0 9
3 9 10 -2 8 -12 10 -12 10 -1 0 11 3 11 15 1 11 -9 15 -9 15 -1 0 9 5 9 20 1
15 -8 20 -8 20 2 0 9 3 9 10 -2 5 -8 10 -10 10 -5 0 11 94 11 121 0 10 -3 20
-2 24 4 4 8 12 8 26 1 14 -8 19 -7 19 2 0 9 3 9 10 -2 7 -11 10 -11 10 -2 0
10 5 10 20 2 14 -8 20 -8 20 0 0 7 6 8 19 0 24 -12 34 -13 27 -1 -7 11 13 9
32 -2 7 -5 12 -3 12 3 0 8 6 8 20 0 15 -8 20 -8 20 2 0 9 3 9 10 -2 6 -10 10
-11 10 -2 0 6 7 12 16 12 8 0 13 -3 11 -7 -3 -5 6 -8 19 -8 13 0 24 5 24 10 0
6 5 3 10 -5 5 -8 10 -10 10 -4 0 7 7 15 16 18 13 5 14 3 6 -6 -8 -10 -5 -13
14 -13 13 0 24 5 24 10 0 7 3 7 8 0 4 -5 26 -10 49 -10 35 -1 40 2 33 16 -6
10 -4 24 7 39 9 13 12 20 6 17 -6 -4 -13 0 -17 8 -3 8 0 17 6 21 7 5 8 2 3 -6
-6 -9 -4 -11 4 -6 9 6 8 12 -4 26 -14 16 -14 19 -1 33 12 12 13 17 3 20 -9 3
-9 9 1 27 12 20 12 22 -2 17 -21 -8 -20 2 2 20 9 8 11 12 5 8 -8 -4 -13 0 -13
10 0 10 5 13 13 9 6 -4 4 2 -6 13 -16 19 -16 22 -3 36 12 12 13 17 3 20 -9 3
-9 9 1 27 12 20 12 22 -2 17 -21 -8 -20 2 2 20 9 8 11 12 5 8 -8 -4 -13 0 -13
10 0 10 5 13 13 9 6 -4 4 2 -6 13 -16 19 -16 22 -3 36 12 12 13 17 3 20 -9 3
-9 9 1 27 12 20 12 22 -2 17 -21 -8 -20 2 2 20 9 8 11 12 5 8 -8 -4 -13 0 -13
10 0 10 5 13 13 9 6 -4 4 2 -6 13 -16 19 -16 22 -3 36 12 12 13 17 3 20 -9 3
-9 9 1 27 12 20 12 22 -2 17 -21 -8 -20 2 2 20 9 8 11 12 5 8 -8 -4 -13 0 -13
10 0 10 5 13 13 9 6 -4 4 2 -6 13 -16 19 -16 22 -3 36 12 12 13 17 3 20 -9 3
-9 9 1 27 12 20 12 22 -2 17 -21 -8 -20 2 2 20 9 8 11 12 5 8 -8 -4 -13 0 -13
10 0 10 5 13 13 9 6 -4 4 2 -6 13 -16 19 -16 22 -3 36 12 12 13 17 3 20 -9 3
-9 9 1 27 12 20 12 22 -2 17 -21 -8 -20 2 2 20 9 8 11 12 5 8 -8 -4 -13 0 -13
10 0 10 5 13 13 9 6 -4 4 2 -6 13 -16 19 -16 22 -3 36 12 12 13 17 3 20 -9 3
-9 9 1 27 12 20 12 22 -2 17 -21 -8 -20 2 2 20 9 8 11 12 5 8 -8 -4 -13 0 -13
10 0 10 5 13 13 9 6 -4 4 2 -6 13 -16 19 -16 22 -3 36 12 12 13 17 3 20 -9 3
-9 9 1 27 12 20 12 22 -2 17 -21 -8 -20 2 2 20 9 8 11 12 5 8 -8 -4 -13 0 -13
10 0 10 5 13 13 9 6 -4 4 2 -6 13 -16 19 -16 22 -3 36 12 12 13 17 3 20 -9 3
-9 9 1 27 12 20 12 22 -2 17 -21 -8 -20 2 2 20 9 8 11 12 5 8 -8 -4 -13 0 -13
10 0 10 5 13 13 9 6 -4 4 2 -6 13 -16 19 -16 22 -3 36 12 12 13 17 3 20 -9 3
-9 9 1 27 12 20 12 22 -2 17 -21 -8 -20 2 2 20 9 8 11 12 5 8 -8 -4 -13 0 -13
10 0 10 5 13 13 9 6 -4 4 2 -6 13 -16 19 -16 22 -3 36 12 12 13 17 3 20 -9 3
-9 9 1 27 12 20 12 22 -2 17 -21 -8 -20 2 2 20 9 8 11 12 5 8 -8 -4 -13 0 -13
10 0 10 5 13 13 9 6 -4 4 2 -6 13 -16 19 -16 22 -3 36 12 12 13 17 3 20 -9 3
-9 9 1 27 12 20 12 22 -2 17 -21 -8 -20 2 2 20 9 8 11 12 5 8 -8 -4 -13 0 -13
10 0 10 5 13 13 9 6 -4 4 2 -6 13 -16 19 -16 22 -3 36 12 12 13 17 3 20 -9 3
-9 9 1 27 12 20 12 22 -2 17 -21 -8 -20 2 2 20 9 8 11 12 5 8 -8 -4 -13 0 -13
10 0 10 5 13 13 9 6 -4 4 2 -6 13 -16 19 -16 22 -3 36 12 12 13 17 3 20 -9 3
-9 9 1 27 12 20 12 22 -2 17 -21 -8 -20 2 2 20 9 8 11 12 5 8 -8 -4 -13 0 -13
10 0 10 5 13 13 9 6 -4 4 2 -6 13 -16 19 -16 22 -3 36 12 12 13 17 3 20 -9 3
-9 9 1 27 12 20 12 22 -2 17 -21 -8 -20 2 2 20 9 8 11 12 5 8 -8 -4 -13 0 -13
10 0 10 5 13 13 9 6 -4 4 2 -6 13 -16 19 -16 22 -3 36 12 12 13 17 3 20 -9 3
-9 9 1 27 12 20 12 22 -2 17 -21 -8 -20 2 2 20 9 8 11 12 5 8 -8 -4 -13 0 -13
10 0 10 5 13 13 9 6 -4 4 2 -6 13 -16 19 -16 22 -3 36 12 12 13 17 3 20 -9 3
-9 9 1 27 12 20 12 22 -2 17 -21 -8 -20 2 2 20 9 8 11 12 5 8 -8 -4 -13 0 -13
10 0 10 5 13 13 9 6 -4 4 2 -6 13 -16 19 -16 22 -3 36 12 12 13 17 3 20 -9 3
-9 9 1 27 12 20 12 22 -2 17 -21 -8 -20 2 2 20 9 8 11 12 5 8 -8 -4 -13 0 -13
10 0 10 5 13 13 9 6 -4 4 2 -6 13 -16 19 -16 22 -3 36 12 12 13 17 3 20 -9 3
-9 9 1 27 12 20 12 22 -2 17 -21 -8 -20 2 2 20 9 8 11 12 5 8 -8 -4 -13 0 -13
10 0 10 5 13 13 9 6 -4 4 2 -6 13 -16 19 -16 22 -3 36 12 12 13 17 3 20 -9 3
-9 9 1 27 12 20 12 22 -2 17 -21 -8 -20 2 2 20 9 8 11 12 5 8 -8 -4 -13 0 -13
10 0 10 5 13 13 9 6 -4 4 2 -6 13 -16 19 -16 22 -3 36 12 12 13 17 3 20 -9 3
-9 9 1 27 12 20 12 22 -2 17 -21 -8 -20 2 2 20 9 8 11 12 5 8 -18 -9 -16 5 5
29 14 17 14 18 1 8 -24 -18 -32 9 -12 39 9 12 11 19 5 15 -7 -4 -12 -1 -12 7
0 15 27 32 43 28 5 -1 6 3 2 9 -5 8 -11 7 -21 -1 -8 -6 -17 -9 -21 -5 -3 3 -1
6 7 6 10 0 10 4 -1 18 -13 15 -12 16 4 3 14 -11 17 -11 17 0 0 12 2 12 9 0 7
-11 13 -11 32 -1 13 7 21 9 17 5 -12 -13 25 -35 38 -24 7 5 16 9 20 8 24 -4
44 2 38 12 -3 6 4 4 17 -4 13 -8 34 -13 47 -11 13 2 21 0 18 -5 -3 -5 5 -4 18
2 13 7 22 16 18 21 -3 6 8 0 25 -12 20 -14 34 -19 38 -12 4 6 12 10 18 9 29
-4 48 2 41 12 -3 6 4 4 17 -4 13 -8 34 -13 47 -11 13 2 21 0 18 -5 -3 -5 5 -4
18 2 13 7 22 16 18 21 -3 6 8 0 25 -12 20 -14 34 -19 38 -12 4 6 12 10 18 9
31 -4 48 2 41 14 -6 9 -4 9 8 -1 9 -7 25 -15 37 -17 l21 -4 -1 462 c0 254 -3
456 -6 449 -2 -6 -9 -10 -14 -6 -21 12 -51 13 -46 0 3 -7 -1 -13 -9 -13 -7 0
-11 4 -8 9 8 12 -24 10 -49 -4 -20 -10 -21 -9 -9 5 11 13 11 15 0 13 -7 -1
-19 -5 -25 -9 -12 -8 -17 -2 -14 16 1 5 -3 6 -9 2 -6 -3 -8 -11 -5 -16 9 -13
-9 -11 -23 3 -9 9 -12 8 -12 -5 0 -9 -5 -17 -11 -17 -5 0 -7 5 -3 12 5 8 -2 9
-25 5 -19 -4 -30 -3 -26 3 3 5 -4 7 -17 4 -13 -3 -60 -5 -106 -5 -52 1 -81 -3
-77 -9 3 -6 1 -10 -4 -10 -6 0 -11 6 -11 13 0 7 -13 12 -30 12 -33 0 -36 -4
-17 -25 6 -8 -1 -4 -16 10 -16 14 -28 21 -27 15 5 -24 -1 -27 -16 -9 -15 18
-15 18 -10 0 5 -14 3 -16 -6 -9 -17 14 -111 16 -103 3 3 -6 1 -10 -4 -10 -6 0
-11 6 -11 14 0 9 -8 12 -26 8 -18 -3 -24 -9 -19 -21 3 -9 -3 -5 -14 8 -18 23
-19 23 -24 5 -4 -15 -5 -14 -6 6 l-2 25 -11 -25 c-10 -24 -10 -24 -18 -5 -8
19 -9 19 -9 1 -1 -20 -1 -20 -17 0 -15 19 -16 19 -9 0 6 -20 6 -20 -16 0 -12
10 -19 14 -16 7 4 -6 3 -14 -3 -18 -5 -3 -10 1 -10 9 0 9 -5 16 -11 16 -6 0
-8 -7 -5 -16 5 -14 4 -15 -8 -5 -21 18 -59 23 -53 7 3 -7 -1 -13 -9 -13 -7 0
-11 4 -8 9 8 12 -24 10 -49 -4 -20 -10 -21 -9 -9 5 11 13 11 15 0 13 -7 -1
-19 -5 -25 -9 -12 -8 -17 -2 -14 16 1 5 -3 6 -9 2 -6 -3 -8 -11 -5 -16 9 -13
-9 -11 -23 3 -9 9 -12 8 -12 -5 0 -9 -5 -17 -11 -17 -5 0 -7 5 -3 12 5 8 -2 9
-25 5 -19 -4 -30 -3 -26 3 3 5 -4 7 -17 4 -13 -3 -60 -5 -106 -5 -52 1 -81 -3
-77 -9 3 -6 1 -10 -4 -10 -6 0 -11 6 -11 13 0 7 -13 12 -30 12 -33 0 -36 -4
-17 -25 6 -8 -1 -4 -16 10 -16 14 -28 21 -27 15 5 -24 -1 -27 -16 -9 -15 18
-15 18 -10 0 5 -14 3 -16 -6 -9 -17 14 -111 16 -103 3 3 -6 1 -10 -4 -10 -6 0
-11 6 -11 14 0 9 -8 12 -26 8 -18 -3 -24 -9 -19 -21 3 -9 -3 -5 -14 8 -18 23
-19 23 -24 5 -4 -15 -5 -14 -6 6 l-2 25 -11 -25 c-10 -24 -10 -24 -18 -5 -8
19 -9 19 -9 1 -1 -20 -1 -20 -17 0 -15 19 -16 19 -9 0 6 -20 6 -20 -16 0 -12
10 -19 14 -16 7 4 -6 3 -14 -3 -18 -5 -3 -10 1 -10 9 0 10 -6 13 -15 10 -8 -4
-12 -10 -9 -15 3 -5 0 -9 -5 -9 -6 0 -11 6 -11 13 0 7 -13 12 -30 12 -33 0
-36 -4 -17 -25 6 -8 -1 -4 -16 10 -16 14 -28 21 -27 15 5 -24 -1 -27 -16 -9
-11 13 -14 14 -11 3 3 -9 -1 -16 -9 -16 -7 0 -11 4 -8 9 3 4 2 8 -3 9 -4 0
-16 2 -26 4 -14 3 -17 -1 -12 -13 5 -14 3 -14 -13 1 -17 16 -20 16 -25 3 -4
-9 -13 -13 -22 -10 -8 3 -12 10 -9 15 3 5 -2 6 -10 3 -9 -3 -13 -10 -10 -15 3
-5 0 -9 -5 -9 -6 0 -11 7 -11 15 0 9 -6 12 -15 9 -8 -4 -12 -10 -9 -15 3 -5 0
-9 -5 -9 -6 0 -11 6 -11 13 0 7 -13 12 -30 12 -33 0 -36 -4 -17 -25 6 -8 -1
-4 -16 10 -16 14 -28 21 -27 15 5 -24 -1 -27 -16 -9 -15 18 -15 18 -10 0 5
-14 3 -16 -6 -9 -17 14 -111 16 -103 3 3 -6 1 -10 -4 -10 -6 0 -11 6 -11 13 0
9 -11 12 -35 9 -19 -2 -32 -8 -29 -13 3 -5 0 -9 -5 -9 -6 0 -11 6 -11 13 0 7
-13 12 -30 12 -33 0 -36 -4 -17 -25 6 -8 -1 -4 -16 10 -16 14 -28 21 -27 15 5
-24 -1 -27 -16 -9 -15 19 -16 19 -9 0 6 -20 6 -20 -16 0 -12 10 -19 14 -16 8
12 -20 -25 -25 -46 -7 -11 10 -17 12 -13 6 4 -8 1 -13 -9 -13 -9 0 -14 4 -10
9 3 5 0 13 -6 17 -8 4 -9 3 -5 -4z m1830 -28 c3 -8 2 -12 -4 -9 -6 3 -10 10
-10 16 0 14 7 11 14 -7z m960 0 c3 -8 2 -12 -4 -9 -6 3 -10 10 -10 16 0 14 7
11 14 -7z m-2684 -870 c0 -8 -19 -13 -24 -6 -3 5 1 9 9 9 8 0 15 -2 15 -3z
m85 -3 c-9 -8 -36 -10 -30 -2 2 4 11 8 20 8 8 0 13 -3 10 -6z m109 -12 c-3 -5
-10 -7 -15 -3 -5 3 -7 10 -3 15 3 5 10 7 15 3 5 -3 7 -10 3 -15z m46 15 c0 -8
-19 -13 -24 -6 -3 5 1 9 9 9 8 0 15 -2 15 -3z m85 -3 c-9 -8 -36 -10 -30 -2 2
4 11 8 20 8 8 0 13 -3 10 -6z m109 -12 c-3 -5 -10 -7 -15 -3 -5 3 -7 10 -3 15
3 5 10 7 15 3 5 -3 7 -10 3 -15z m46 15 c0 -8 -19 -13 -24 -6 -3 5 1 9 9 9 8
0 15 -2 15 -3z m85 -3 c-9 -8 -36 -10 -30 -2 2 4 11 8 20 8 8 0 13 -3 10 -6z
m109 -12 c-3 -5 -10 -7 -15 -3 -5 3 -7 10 -3 15 3 5 10 7 15 3 5 -3 7 -10 3
-15z m46 15 c0 -8 -19 -13 -24 -6 -3 5 1 9 9 9 8 0 15 -2 15 -3z m285 -4 c11
9 12 7 8 -10 -4 -16 -8 -18 -19 -9 -8 6 -14 17 -13 23 0 6 3 6 6 -2 4 -9 8
-10 18 -2z m1109 -11 c-3 -5 -10 -7 -15 -3 -5 3 -7 10 -3 15 3 5 10 7 15 3 5
-3 7 -10 3 -15z m46 15 c0 -8 -19 -13 -24 -6 -3 5 1 9 9 9 8 0 15 -2 15 -3z
m85 -3 c-9 -8 -36 -10 -30 -2 2 4 11 8 20 8 8 0 13 -3 10 -6z m109 -12 c-3 -5
-10 -7 -15 -3 -5 3 -7 10 -3 15 3 5 10 7 15 3 5 -3 7 -10 3 -15z m46 15 c0 -8
-19 -13 -24 -6 -3 5 1 9 9 9 8 0 15 -2 15 -3z m85 -3 c-9 -8 -36 -10 -30 -2 2
4 11 8 20 8 8 0 13 -3 10 -6z m109 -12 c-3 -5 -10 -7 -15 -3 -5 3 -7 10 -3 15
3 5 10 7 15 3 5 -3 7 -10 3 -15z m46 15 c0 -8 -19 -13 -24 -6 -3 5 1 9 9 9 8
0 15 -2 15 -3z m-1596 -190 c3 -8 2 -12 -4 -9 -6 3 -10 10 -10 16 0 14 7 11
14 -7z m-9 -54 c3 -5 1 -10 -4 -10 -6 0 -11 5 -11 10 0 6 2 10 4 10 3 0 8 -4
11 -10z m0 -120 c3 -5 1 -10 -4 -10 -6 0 -11 5 -11 10 0 6 2 10 4 10 3 0 8 -4
11 -10z m0 -320 c3 -5 1 -10 -4 -10 -6 0 -11 5 -11 10 0 6 2 10 4 10 3 0 8 -4
11 -10z m9 -306 c3 -8 2 -12 -4 -9 -6 3 -10 10 -10 16 0 14 7 11 14 -7z m-9
-54 c3 -5 1 -10 -4 -10 -6 0 -11 5 -11 10 0 6 2 10 4 10 3 0 8 -4 11 -10z m9
-426 c3 -8 2 -12 -4 -9 -6 3 -10 10 -10 16 0 14 7 11 14 -7z m-9 -54 c3 -5 1
-10 -4 -10 -6 0 -11 5 -11 10 0 6 2 10 4 10 3 0 8 -4 11 -10z m0 -120 c3 -5 1
-10 -4 -10 -6 0 -11 5 -11 10 0 6 2 10 4 10 3 0 8 -4 11 -10z m0 -320 c3 -5 1
-10 -4 -10 -6 0 -11 5 -11 10 0 6 2 10 4 10 3 0 8 -4 11 -10z m9 -306 c3 -8 2
-12 -4 -9 -6 3 -10 10 -10 16 0 14 7 11 14 -7z m-9 -54 c3 -5 1 -10 -4 -10 -6
0 -11 5 -11 10 0 6 2 10 4 10 3 0 8 -4 11 -10z m9 -426 c3 -8 2 -12 -4 -9 -6
3 -10 10 -10 16 0 14 7 11 14 -7z m-9 -54 c3 -5 1 -10 -4 -10 -6 0 -11 5 -11
10 0 6 2 10 4 10 3 0 8 -4 11 -10z m0 -120 c3 -5 1 -10 -4 -10 -6 0 -11 5 -11
10 0 6 2 10 4 10 3 0 8 -4 11 -10z m0 -320 c3 -5 1 -10 -4 -10 -6 0 -11 5 -11
10 0 6 2 10 4 10 3 0 8 -4 11 -10z"/>
<path d="M4626 7268 c3 -5 10 -6 15 -3 13 9 11 12 -6 12 -8 0 -12 -4 -9 -9z"/>
<path d="M4750 7270 c0 -5 5 -10 11 -10 5 0 7 5 4 10 -3 6 -8 10 -11 10 -2 0
-4 -4 -4 -10z"/>
<path d="M7880 7270 c-8 -5 -12 -12 -9 -15 4 -3 12 1 19 10 14 17 11 19 -10 5z"/>
<path d="M8110 7270 c0 -5 5 -10 11 -10 5 0 7 5 4 10 -3 6 -8 10 -11 10 -2 0
-4 -4 -4 -10z"/>
<path d="M2554 7193 c16 -20 36 -23 36 -6 0 4 -3 3 -7 0 -3 -4 -16 1 -27 10
-21 18 -21 18 -2 -4z"/>
<path d="M2695 7130 c3 -5 8 -10 11 -10 2 0 4 5 4 10 0 6 -5 10 -11 10 -5 0
-7 -4 -4 -10z"/>
<path d="M105 6371 c-6 -11 13 -26 22 -17 4 3 1 6 -6 6 -7 0 -9 5 -6 10 3 6 4
10 1 10 -3 0 -7 -4 -11 -9z"/>
<path d="M4700 6373 c0 -1 8 -7 18 -12 13 -7 19 -6 19 2 0 7 -9 13 -19 13 -10
0 -18 -1 -18 -3z"/>
<path d="M7996 6367 c-16 -12 -16 -13 2 -13 10 0 19 6 19 13 0 7 -1 13 -2 13
-1 0 -9 -6 -19 -13z"/>
<path d="M170 6360 c0 -5 5 -10 11 -10 5 0 7 5 4 10 -3 6 -8 10 -11 10 -2 0
-4 -4 -4 -10z"/>
<path d="M7956 6353 c-6 -14 -5 -15 5 -6 7 7 10 15 7 18 -3 3 -9 -2 -12 -12z"/>
<path d="M297 6273 c-10 -9 -9 -23 1 -23 5 0 9 7 9 15 0 17 -1 18 -10 8z"/>
<path d="M5461 5954 c6 -7 16 -11 21 -8 11 7 3 17 -18 20 -12 2 -13 -1 -3 -12z"/>
<path d="M5450 5925 c0 -2 6 -8 13 -14 10 -8 14 -7 14 2 0 8 -6 14 -14 14 -7
0 -13 -1 -13 -2z"/>
<path d="M9156 5887 c3 -10 9 -15 12 -12 3 3 0 11 -7 18 -10 9 -11 8 -5 -6z"/>
<path d="M5461 5794 c6 -7 16 -11 21 -8 11 7 3 17 -18 20 -12 2 -13 -1 -3 -12z"/>
<path d="M5450 5765 c0 -2 6 -8 13 -14 10 -8 14 -7 14 2 0 8 -6 14 -14 14 -7
0 -13 -1 -13 -2z"/>
<path d="M5461 5634 c6 -7 16 -11 21 -8 11 7 3 17 -18 20 -12 2 -13 -1 -3 -12z"/>
<path d="M5450 5605 c0 -2 6 -8 13 -14 10 -8 14 -7 14 2 0 8 -6 14 -14 14 -7
0 -13 -1 -13 -2z"/>
<path d="M9156 5567 c3 -10 9 -15 12 -12 3 3 0 11 -7 18 -10 9 -11 8 -5 -6z"/>
<path d="M5461 5474 c6 -7 16 -11 21 -8 11 7 3 17 -18 20 -12 2 -13 -1 -3 -12z"/>
<path d="M5469 5213 c0 -5 -2 -21 -4 -38 -3 -25 -2 -27 6 -12 6 10 8 21 5 24
-3 4 -1 12 5 20 9 9 8 13 0 13 -6 0 -11 -3 -12 -7z"/>
<path d="M2926 5145 c-18 -14 -18 -14 1 -12 11 0 20 7 20 14 0 7 -1 13 -1 13
-1 0 -9 -7 -20 -15z"/>
<path d="M5469 4973 c0 -5 -2 -21 -4 -38 -3 -25 -2 -27 6 -12 6 10 8 21 5 24
-3 4 -1 12 5 20 9 9 8 13 0 13 -6 0 -11 -3 -12 -7z"/>
<path d="M2980 4881 c0 -6 4 -13 10 -16 6 -3 7 1 4 9 -7 18 -14 21 -14 7z"/>
<path d="M5461 4674 c6 -7 16 -11 21 -8 11 7 3 17 -18 20 -12 2 -13 -1 -3 -12z"/>
<path d="M5450 4645 c0 -2 6 -8 13 -14 10 -8 14 -7 14 2 0 8 -6 14 -14 14 -7
0 -13 -1 -13 -2z"/>
<path d="M9156 4607 c3 -10 9 -15 12 -12 3 3 0 11 -7 18 -10 9 -11 8 -5 -6z"/>
<path d="M3305 4601 c-6 -11 13 -26 22 -17 4 3 1 6 -6 6 -7 0 -9 5 -6 10 3 6
4 10 1 10 -3 0 -7 -4 -11 -9z"/>
<path d="M5461 4514 c6 -7 16 -11 21 -8 11 7 3 17 -18 20 -12 2 -13 -1 -3 -12z"/>
<path d="M5461 4331 c-8 -5 -9 -11 -3 -15 5 -3 12 1 16 9 6 17 6 18 -13 6z"/>
<path d="M6445 4320 c3 -5 8 -10 11 -10 2 0 4 5 4 10 0 6 -5 10 -11 10 -5 0
-7 -4 -4 -10z"/>
<path d="M9156 4287 c3 -10 9 -15 12 -12 3 3 0 11 -7 18 -10 9 -11 8 -5 -6z"/>
<path d="M5466 4164 c-5 -14 -4 -15 9 -4 17 14 19 20 6 20 -5 0 -12 -7 -15
-16z"/>
<path d="M6445 4080 c3 -5 8 -10 11 -10 2 0 4 5 4 10 0 6 -5 10 -11 10 -5 0
-7 -4 -4 -10z"/>
<path d="M6445 3840 c3 -5 8 -10 11 -10 2 0 4 5 4 10 0 6 -5 10 -11 10 -5 0
-7 -4 -4 -10z"/>
<path d="M3433 3725 c0 -8 4 -12 9 -9 5 3 6 10 3 15 -9 13 -12 11 -12 -6z"/>
<path d="M7250 3689 c0 -5 5 -7 10 -4 6 3 10 8 10 11 0 2 -4 4 -10 4 -5 0 -10
-5 -10 -11z"/>
<path d="M7310 3689 c0 -5 5 -7 10 -4 6 3 10 8 10 11 0 2 -4 4 -10 4 -5 0 -10
-5 -10 -11z"/>
<path d="M7346 3552 c-3 -5 1 -9 9 -9 8 0 12 4 9 9 -3 4 -7 8 -9 8 -2 0 -6 -4
-9 -8z"/>
<path d="M7345 3520 c-3 -5 -1 -10 4 -10 6 0 11 5 11 10 0 6 -2 10 -4 10 -3 0
-8 -4 -11 -10z"/>
<path d="M4550 3416 c0 -2 8 -10 18 -17 15 -13 16 -12 3 4 -13 16 -21 21 -21
13z"/>
<path d="M7340 3400 c0 -5 5 -10 11 -10 5 0 7 5 4 10 -3 6 -8 10 -11 10 -2 0
-4 -4 -4 -10z"/>
<path d="M9156 3327 c3 -10 9 -15 12 -12 3 3 0 11 -7 18 -10 9 -11 8 -5 -6z"/>
<path d="M7340 3280 c0 -5 5 -10 11 -10 5 0 7 5 4 10 -3 6 -8 10 -11 10 -2 0
-4 -4 -4 -10z"/>
<path d="M3113 3155 c0 -8 4 -12 9 -9 5 3 6 10 3 15 -9 13 -12 11 -12 -6z"/>
<path d="M7340 3160 c0 -5 5 -10 11 -10 5 0 7 5 4 10 -3 6 -8 10 -11 10 -2 0
-4 -4 -4 -10z"/>
<path d="M7340 3040 c0 -5 5 -10 11 -10 5 0 7 5 4 10 -3 6 -8 10 -11 10 -2 0
-4 -4 -4 -10z"/>
<path d="M9156 3007 c3 -10 9 -15 12 -12 3 3 0 11 -7 18 -10 9 -11 8 -5 -6z"/>
</g>
</svg>
